<?xml version="1.0" encoding="UTF-8"?>
<svg id="Layer_2" data-name="Layer 2" xmlns="http://www.w3.org/2000/svg" viewBox="0 0 1691.27 132.59">
  <defs>
    <style>
      .cls-1 {
        fill: #fff;
      }
    </style>
  </defs>
  <g id="Layer_1-2" data-name="Layer 1">
    <g id="cepibF.tif">
      <g>
        <path class="cls-1" d="M1565.52,94.07l-.35-.17v-54.79s.35-.22.35-.22c33.62,0,67.24,0,100.86,0,33.3,3.55,33.13,51.87-.18,55.2-33.56,0-67.12-.02-100.68,0Z"/>
        <path class="cls-1" d="M1555.6,38.7l.35.17c0,18.26,0,36.52,0,54.79l-.35.22c-33.58,0-67.16,0-100.74,0-33.1-3.62-33.09-51.62,0-55.2,33.58,0,67.16.02,100.74,0Z"/>
        <path class="cls-1" d="M1418.86,63.43l2.33-49.09h13.63l11.83,20.56c-13.84,2.78-22.7,12.78-23.9,31.04,1.93,16.07,8.93,27.41,23.51,32.24l-11.47,20.05-13.61.39-2.33-49.45v-5.73Z"/>
        <rect class="cls-1" x="0" y="63.43" width="1419.09" height="5.73"/>
        <polygon class="cls-1" points="1568.33 97.11 1558.11 132.51 1534.07 132.59 1530.12 97.11 1568.33 97.11"/>
        <polygon class="cls-1" points="1530.12 35.48 1534.07 0 1558.11 .08 1568.33 35.48 1530.12 35.48"/>
      </g>
    </g>
  </g>
</svg>