<?xml version="1.0" encoding="UTF-8"?>
<svg id="Layer_2" data-name="Layer 2" xmlns="http://www.w3.org/2000/svg" viewBox="0 0 1691.27 493.08">
  <defs>
    <style>
      .cls-1 {
        fill: #fff;
      }

      .cls-2 {
        fill: #fefefe;
      }
    </style>
  </defs>
  <g id="Layer_1-2" data-name="Layer 1">
    <g>
      <g id="uELc5x.tif">
        <g>
          <path class="cls-2" d="M224.56,0c145.54,13.66,228.48,176.22,150.24,302.15-74.42,119.77-248.39,126.28-330.84,11.37C-45.98,188.18,37.12,11.25,190.6,0h33.96ZM386.31,198c0-99.49-80.76-180.14-180.38-180.14S25.54,98.51,25.54,198s80.76,180.14,180.38,180.14,180.38-80.65,180.38-180.14Z"/>
          <path class="cls-2" d="M843.82,160.6h-17.98v-50.87h-19.98v50.87h-17.98V45.88h17.98v46.38c0,.25-.06.68-.03,1.09v1.4h20.01v-48.88c6.53,0,11.82,0,17.98,0v114.72Z"/>
          <path class="cls-2" d="M467.77,177.55l15.98,71.83c2.34-6.4,11.31-71.83,14.98-71.83h23.97l1.5,1.5v107.73l-1.5,1.5h-15.48v-82.79l-17.59,82.85-13.27-.16-17.08-80.69v80.8h-16.98v-109.22l1.5-1.5h23.97Z"/>
          <path class="cls-2" d="M594.12,288.27v-110.72c12.07,1.06,38.49-3.17,47.34,6.08,2.13,2.23,4.59,7.8,5.14,10.83,2.16,11.83,1.98,62.76.19,75.1-1.13,7.82-5.59,14.23-13.17,16.77-1.22.41-7.3,1.94-8.05,1.94h-31.46ZM611.1,273.31c6.12,0,17.07.89,18.77-6.69-1.07-21.09,2.14-44.9.26-65.67-1.01-11.11-10.62-8.02-19.03-8.43v80.8Z"/>
          <path class="cls-2" d="M678.02,160.6h-18.98l-3.1-22.83-20.3-.13-3.79,22.97h-17.58l19.96-113.05c.29-1.34,1.18-1.45,2.33-1.67,2.11-.4,19.7-.17,20.55.43l20.91,114.28ZM654.05,121.69l-8.49-54.87-7.49,54.87h15.98Z"/>
          <path class="cls-2" d="M495.24,83.79h-16.98v-15.46c0-.32-1.47-5.66-1.74-6.24-2.25-4.78-15.99-5.22-17.21,1.28-.5,2.69-.48,15.17.02,17.88,1.44,7.79,28.38,23.47,33.43,34.44,3.01,6.54,3.14,19.25,2.52,26.49-1.76,20.47-19.77,21.22-36.49,19.42-16.97-1.83-19.14-21.79-17.53-35.46.12-1,.45-3.44,1.55-3.44h14.98c4.56,0-3.29,21.48,6.44,24.49,12.59,3.89,15.19-7.95,13.78-17.75-2.11-14.62-27.28-23.94-34.2-39.66-4.56-10.35-4.9-34.1,5.56-41.33,8.5-5.88,32.04-5.39,39.79,2.03,1.93,1.84,6.09,9.51,6.09,11.87v21.45Z"/>
          <polygon class="cls-2" points="606.1 45.88 606.1 60.85 582.13 60.85 582.13 94.76 604.11 94.76 604.11 109.72 582.13 109.72 582.13 144.64 608.1 144.64 608.1 160.6 564.15 160.6 564.15 45.88 565.52 45.88 606.1 45.88"/>
          <polygon class="cls-2" points="517.21 308.22 526.7 356.11 540.14 308.68 557.12 308.27 569.64 354.11 579.18 308.27 592.12 308.23 577.1 373.01 560.26 372.96 547.18 328.17 535.09 372.96 520.67 373.13 503.23 308.22 517.21 308.22"/>
          <path class="cls-2" d="M582.13,177.55v15.96h-25.97v30.92h20.97v14.96h-20.97v33.91h26.97c-.54,3.11-1.03,6.3-1.08,9.48-.02,1.36,1.62,5.48-.42,5.48h-42.45v-110.72h42.95Z"/>
          <path class="cls-2" d="M553.17,61.84h-15.98v98.75h-17.98V60.85h-16.98v-14.96c25.67-.06,27.49,0,46.41,0,.81,0,1.29,0,4.53,0v15.97Z"/>
          <polygon class="cls-2" points="775.9 45.88 775.9 61.84 758.92 61.84 758.92 160.6 741.94 160.6 741.94 61.84 723.96 61.84 723.96 45.88 775.9 45.88"/>
          <polygon class="cls-2" points="702.99 45.88 702.99 144.64 728.96 144.64 728.96 160.6 686.01 160.6 686.01 45.88 702.99 45.88"/>
          <path class="cls-2" d="M482.75,308.22c5.6.79,13.07,5.9,14.25,11.7,2.19,10.74-.52,24.82-13.75,25.22l13.98,27.92h-14.48c-1.42,0-10.7-22.79-11.49-25.93h-14.48c-1.09,0-1.43,2.44-1.55,3.44-.76,6.46.27,14.95.61,21.52-1.49,2.08-10.68.48-13.55.97v-64.84c12.53,1.27,28.33-1.7,40.45,0ZM455.28,337.15h23.47c2.99,0,6.56-6.42,6.53-9.5-.04-3.46-4.28-9.45-7.53-9.45h-20.97l-1.5,1.5v17.46Z"/>
          <polygon class="cls-2" points="645.06 308.22 645.06 320.19 614.09 320.19 614.09 334.16 644.06 334.16 644.06 345.13 614.09 345.13 614.09 361.09 645.06 361.09 645.06 373.06 601.11 373.06 601.11 308.22 645.06 308.22"/>
          <path class="cls-2" d="M747.94,350.12l-34.96,1c-.13,10.08,10.9,16.02,19.36,10.85,2.08-1.27,2.71-4.18,4.27-4.71,2.64-.91,7.34.29,10.33-.16.89,21.17-34.71,22.26-42.77,6.3-7.62-15.08-3.21-38.34,16.31-40.2s28.17,8.6,27.46,26.92ZM734.95,344.13c.63-16.73-21.29-16.16-21.97,0h21.97Z"/>
          <path class="cls-2" d="M675.03,359.09l12.51-33.93,12.44-.97-23.44,59.87c-4.03,8.28-12.68,7.11-20.51,6.96v-9.98c5.69-.06,12.66,1.61,11.96-6.36-.54-6.2-9.28-27.6-11.93-35.05-.85-2.38-7.15-14.89-7.12-15.65,8.28,1.03,7.72.85,14.62,1.17,3.87,3.98,8.08,27.64,11.47,33.94Z"/>
          <path class="cls-2" d="M198.59,46.88c21.39.58,42.38,3.47,62.44,10.95,48.61,18.14,86.65,66.22,94.08,117.51,13.54,93.45-62.15,176.81-156.52,171.78v-43.89c-48.59-2.96-90.32-26.87-125.86-58.34-11.45-10.14-25.76-23.64-35.97-34.9-1.85-2.04-9.86-11.08-9.92-12.99s1.44-3.21,2.44-4.52c7.5-9.77,25.7-25.62,35.46-34.41,38.09-34.28,80.32-64.39,133.85-66.32v-44.89ZM211.58,61.35v30.42c23.46,3.2,45.42,11.17,63.44,26.69,2.93-3.32,22.49-20.77,22.47-23.19-19.79-16.24-43.17-28.67-68.7-33.16-3.53-.62-11.92-2.16-14.96-2.07-.94.03-2.02.49-2.25,1.3ZM310.46,190.52h31.96c-.11-31.49-14.77-61.12-34.54-84.86-1.25-.2-2.01.39-2.97,1.02-5.03,3.32-13.54,14.13-17.93,19.05-.54.61-1.66.88-2.49.97v1.46c15.34,16.74,25.28,39.61,25.96,62.36ZM211.58,107.73v34.41c5.55,2.98,11.97,3.57,17.66,6.3,2.67,1.28,8.94,6.5,10.6,6.07l24.67-25.3c-15.1-12.69-33.12-20.15-52.94-21.48ZM198.59,108.73c-71.81,7.62-108.45,92.52-59.44,148.64,44.08,50.47,129.08,34.69,152.11-27.67,3.2-8.65,3.76-17.22,5.22-26.21h-26.97v-12.97h25.97c-.36-18.94-8.81-37.92-21.47-51.85l-50.96,51.87c4.59,14.7-5.77,29.62-22,24.96-18.76-5.38-15.62-34.75,4.05-35.05,3.32-.05,6.59,1.9,9.46.58,1.23-.57,15.12-14.75,14.93-15.82-7.23-8.68-20.27-9.78-30.89-9.61v-46.88ZM343.42,203.49h-32.96c-.48,46.09-36.82,88.34-81.85,97.31-2.7.54-17.03,1.33-17.03,2.94v29.43c57.44.07,109.3-41.23,125.56-95.54,3.34-11.17,4.65-22.63,6.28-34.13Z"/>
        </g>
      </g>
      <g id="cepibF.tif">
        <g>
          <path class="cls-1" d="M1565.52,454.56l-.35-.17v-54.79s.35-.22.35-.22c33.62,0,67.24,0,100.86,0,33.3,3.55,33.13,51.87-.18,55.2-33.56,0-67.12-.02-100.68,0Z"/>
          <path class="cls-1" d="M1555.6,399.2l.35.17c0,18.26,0,36.52,0,54.79l-.35.22c-33.58,0-67.16,0-100.74,0-33.1-3.62-33.09-51.62,0-55.2,33.58,0,67.16.02,100.74,0Z"/>
          <path class="cls-1" d="M1418.86,423.93l2.33-49.09h13.63l11.83,20.56c-13.84,2.78-22.7,12.78-23.9,31.04,1.93,16.07,8.93,27.41,23.51,32.24l-11.47,20.05-13.61.39-2.33-49.45"/>
          <polyline class="cls-1" points="1419.09 429.66 0 429.66 0 423.92 1419.09 423.92"/>
          <polygon class="cls-1" points="1568.33 457.61 1558.11 493.01 1534.07 493.08 1530.12 457.61 1568.33 457.61"/>
          <polygon class="cls-1" points="1530.12 395.97 1534.07 360.5 1558.11 360.58 1568.33 395.97 1530.12 395.97"/>
        </g>
      </g>
    </g>
  </g>
</svg>