<?xml version="1.0" encoding="UTF-8"?>
<svg id="Layer_2" data-name="Layer 2" xmlns="http://www.w3.org/2000/svg" viewBox="0 0 1639.48 94.32">
  <defs>
    <style>
      .cls-1 {
        fill: #fff;
      }
    </style>
  </defs>
  <g id="Layer_1-2" data-name="Layer 1">
    <g>
      <rect class="cls-1" x="0" y="44.65" width="1459.61" height="5.9"/>
      <g>
        <path class="cls-1" d="M1552.52,66.18l-.24-.12c0-12.5,0-25.01,0-37.52l.24-.15c23.25,0,46.5,0,69.75,0,23.03,2.43,22.91,35.52-.12,37.8-23.21,0-46.42-.01-69.63,0Z"/>
        <path class="cls-1" d="M1545.66,28.26l.24.12c0,12.5,0,25.01,0,37.52l-.24.15c-23.22,0-46.44,0-69.67,0-22.89-2.48-22.89-35.35,0-37.8,23.22,0,46.45.01,69.67,0Z"/>
        <polygon class="cls-1" points="1550.91 68.26 1547.39 94.26 1530.76 94.32 1528.04 68.26 1550.91 68.26"/>
        <polygon class="cls-1" points="1528.04 26.06 1530.76 0 1547.39 .06 1550.91 26.06 1528.04 26.06"/>
      </g>
      <path class="cls-1" d="M1465.47,30.28l-2.08-20.89h9.43l6.46,16.67c-1.58,0-2.22,0-3.27,0-3.75.37-7.21,1.57-10.53,4.22Z"/>
      <path class="cls-1" d="M1465.47,64.13l-2.08,20.89h9.43l6.46-16.67c-1.58,0-2.22,0-3.27,0-3.75-.37-7.21-1.57-10.53-4.22Z"/>
    </g>
  </g>
</svg>