<svg version="1.1" id="Layer_1" xmlns="http://www.w3.org/2000/svg" xmlns:xlink="http://www.w3.org/1999/xlink" x="0px" y="0px"
	 width="100%" viewBox="0 0 853 400" enable-background="new 0 0 853 400" xml:space="preserve">
<path fill="#010101" opacity="1.000000" stroke="none" 
	d="
M232.000000,1.000002 
	C439.297424,1.000000 646.594849,1.000000 853.946167,1.000000 
	C853.946167,134.274323 853.946167,267.548676 853.946167,400.911499 
	C569.774902,400.911499 285.549774,400.911499 1.162330,400.911499 
	C1.162330,267.666809 1.162330,134.333435 1.162330,1.000000 
	C60.762241,1.000000 120.418488,1.000000 180.856873,1.353707 
	C180.786194,2.088257 179.960663,2.715779 179.076523,2.813631 
	C160.102905,4.913500 141.983917,10.215503 124.462219,17.595520 
	C83.216415,34.967979 52.479328,64.102470 30.482935,102.677322 
	C15.953609,128.157242 7.693421,155.637131 5.896417,185.392426 
	C5.850784,194.851547 5.930481,203.924118 5.970665,213.441284 
	C10.612118,268.447815 32.685303,314.393860 74.604179,350.009186 
	C118.582718,387.374420 169.642090,403.397919 226.997162,396.575470 
	C274.884674,390.879211 316.065582,370.630127 349.079834,334.987366 
	C393.102081,287.460205 410.079132,231.045853 400.502411,167.498535 
	C391.935272,110.650360 362.248840,66.131775 314.718323,33.764874 
	C290.435089,17.228701 263.554291,7.125062 234.467209,2.878529 
	C233.572464,2.747900 232.819214,1.648014 232.000000,1.000002 
M576.063782,237.227386 
	C576.007202,236.150177 575.950623,235.072968 576.053528,233.101196 
	C576.053528,230.860260 576.053528,228.619324 576.053528,226.023605 
	C568.660400,226.023605 561.788513,226.023605 554.770569,225.093033 
	C554.770569,215.037643 554.770569,204.982254 554.945312,194.922989 
	C554.945312,194.922989 554.919312,194.750183 555.865051,194.682938 
	C563.904541,194.594528 571.944092,194.506119 580.751160,194.195465 
	C580.751160,189.291992 580.751160,184.388504 580.751160,179.371994 
	C566.295593,179.371994 552.229736,179.371994 537.969604,179.371994 
	C537.969604,180.741608 537.969604,181.873245 537.767395,183.842621 
	C537.838135,187.059357 537.908813,190.276093 537.795044,194.480179 
	C537.967285,200.676376 538.139526,206.872574 538.393005,213.087555 
	C538.393005,213.087555 538.244385,213.173233 537.829895,214.259140 
	C537.883179,215.416061 537.936462,216.572968 537.812073,218.328995 
	C537.871643,219.366394 537.931213,220.403778 537.809509,222.472351 
	C537.870300,223.862869 537.931152,225.253387 537.808044,227.342575 
	C537.871399,230.755707 537.934753,234.168823 537.817139,238.575058 
	C537.983093,242.740692 538.149109,246.906342 538.396729,251.088593 
	C538.396729,251.088593 538.246033,251.168243 537.844971,252.145966 
	C538.003723,263.839600 538.162476,275.533234 538.403992,287.233734 
	C538.403992,287.233734 538.222168,287.241974 537.816589,287.996063 
	C538.577942,288.589050 539.335266,289.693298 540.101196,289.699188 
	C553.666931,289.804016 567.233704,289.775085 581.282227,289.775085 
	C581.282227,285.193970 581.349121,280.912323 581.190979,276.638977 
	C581.172791,276.148163 579.898926,275.703857 579.171692,275.330688 
	C579.171692,275.330688 579.185120,275.339172 577.696594,274.874878 
	C576.660461,274.924194 575.624390,274.973511 574.055054,274.846710 
	C568.430664,274.905792 562.806274,274.964905 556.475464,274.853638 
	C555.853088,274.563873 555.230652,274.274078 554.754456,273.059174 
	C554.729187,262.378815 554.703918,251.698471 555.064453,240.809128 
	C555.064453,240.809128 555.143311,240.377518 556.059143,240.453217 
	C560.824890,240.453262 565.594177,240.557709 570.354309,240.394455 
	C571.934509,240.340271 573.491028,239.598145 575.583435,238.986206 
	C575.682434,238.663818 575.781433,238.341431 576.063782,237.227386 
M580.956543,146.061630 
	C580.956543,146.061630 580.818604,146.059464 580.757263,145.116241 
	C580.680359,134.087814 580.603394,123.059380 581.166565,111.385994 
	C588.354004,111.385994 595.541443,111.385994 602.605408,111.385994 
	C602.605408,105.852051 602.605408,101.286263 602.605408,96.276100 
	C596.214600,96.276100 590.135010,96.106682 584.072266,96.352440 
	C581.321533,96.463936 580.637512,95.230820 580.736511,92.057083 
	C580.857971,82.048080 580.979370,72.039078 582.022217,62.114613 
	C589.593506,62.114613 597.164734,62.114613 605.547546,62.114613 
	C605.011902,56.688705 604.526550,51.771923 603.283386,46.543808 
	C590.032959,46.543808 576.782532,46.543808 563.478394,46.543808 
	C563.478394,85.433083 563.478394,123.618645 563.478394,162.002274 
	C572.121338,162.002274 580.561035,162.002274 589.882263,162.127960 
	C592.255371,162.083313 594.628418,162.038666 597.372620,162.187119 
	C597.914062,162.121384 598.455505,162.055664 599.906982,162.119568 
	C602.164734,162.119568 604.422485,162.119568 607.541260,162.119568 
	C606.985046,156.629913 606.477661,151.622406 605.066345,146.370575 
	C597.023071,146.313110 588.979858,146.255646 580.956543,146.061630 
M825.137085,48.918598 
	C825.157715,64.365540 825.178345,79.812477 824.664429,95.728043 
	C817.951111,95.728043 811.237732,95.728043 804.072815,95.728043 
	C804.072815,79.465912 804.072815,63.739689 804.127869,47.400051 
	C803.759766,47.307079 803.391602,47.214108 802.103699,46.958744 
	C797.738220,46.989567 793.372742,47.020386 788.145020,46.950737 
	C787.806335,48.437904 787.195984,49.921307 787.175293,51.412872 
	C787.078613,58.383881 787.150513,65.357140 787.151428,72.329597 
	C787.155334,100.883469 787.130432,129.437439 787.235046,157.990921 
	C787.239929,159.331360 788.385132,160.667633 789.922180,162.127136 
	C794.285278,162.060242 798.648438,161.993347 803.631958,162.002518 
	C803.773071,161.664368 803.914185,161.326202 804.279053,160.075439 
	C804.279053,143.865112 804.279053,127.654793 804.279053,110.993797 
	C811.516968,110.993797 818.269409,110.993797 825.094299,111.929466 
	C825.147217,128.037216 825.200073,144.144958 825.074341,160.963226 
	C830.387512,161.279114 835.700623,161.594986 841.631836,161.986328 
	C841.777893,161.652435 841.923950,161.318527 842.293091,160.072357 
	C842.296143,127.022324 842.309448,93.972282 842.289856,60.922264 
	C842.287292,56.616230 842.115845,52.310295 842.068726,47.418919 
	C841.720825,47.322891 841.372925,47.226868 840.107910,46.948471 
	C835.735291,47.005737 831.362732,47.063000 826.488342,46.966045 
	C826.326111,47.031425 826.163818,47.096809 825.476318,47.082912 
	C825.411377,47.385315 825.346497,47.687714 825.137085,48.918598 
M644.114075,319.087616 
	C644.114075,316.141449 644.114075,313.195251 644.114075,310.235352 
	C629.157410,310.235352 614.631104,310.235352 600.281433,310.235352 
	C600.281433,331.977173 600.281433,353.368073 600.281433,374.729950 
	C615.025757,374.729950 629.432983,374.729950 643.768555,374.729950 
	C643.768555,370.736572 643.768555,367.029938 643.768555,362.967865 
	C633.302795,362.967865 623.215515,362.967865 613.216431,362.967865 
	C613.216431,357.560211 613.216431,352.529327 613.216431,347.266235 
	C618.084534,347.266235 622.561035,347.299347 627.036926,347.257111 
	C631.690979,347.213226 636.344299,347.096497 641.620544,347.088531 
	C641.718811,346.731415 641.817078,346.374298 642.024475,345.124481 
	C641.677795,342.144623 641.331055,339.164764 640.196960,336.053009 
	C639.137085,336.102234 638.077148,336.151459 636.170471,336.012390 
	C634.441833,336.068817 632.713135,336.125244 630.249695,336.032990 
	C629.505127,336.082825 628.760620,336.132660 627.094849,335.999969 
	C622.475891,335.999969 617.856995,335.999969 612.935059,335.999969 
	C612.935059,330.918152 612.935059,326.304077 613.879517,321.637970 
	C622.670288,321.642883 631.461975,321.712524 640.250671,321.579193 
	C641.494629,321.560333 642.723633,320.552979 644.114075,319.087616 
M442.166290,309.978851 
	C441.851105,311.170197 441.264587,312.360748 441.261200,313.552979 
	C441.205597,333.131195 441.212982,352.709656 441.260864,372.287933 
	C441.262939,373.132935 441.790466,373.976654 442.960114,375.029144 
	C446.639465,374.685974 450.318848,374.342804 454.191162,373.502075 
	C454.137390,373.332550 454.083618,373.162994 454.254242,372.080414 
	C454.254242,364.497101 454.254242,356.913818 454.254242,349.221008 
	C459.810455,349.221008 464.622223,349.221008 469.401520,349.221008 
	C472.968933,356.958405 476.442688,364.649170 480.098846,372.252258 
	C480.641113,373.379974 481.990021,374.792816 483.058014,374.875031 
	C487.082214,375.184845 491.144592,374.999359 495.773102,374.999359 
	C490.918854,365.372742 486.461975,356.534210 481.888824,347.465057 
	C487.609375,346.038269 492.675476,343.883636 494.463593,338.241180 
	C499.075470,323.687744 495.478668,310.328857 476.470856,310.010040 
	C465.320953,309.822998 454.164581,310.018890 442.166290,309.978851 
M520.915710,162.123520 
	C525.277649,162.069611 529.639526,162.015686 534.864990,162.049103 
	C535.182434,160.392059 535.773438,158.735580 535.776855,157.077911 
	C535.837891,127.150314 535.828003,97.222572 535.833252,67.294868 
	C535.833557,65.704491 535.833252,64.114113 535.833252,62.362633 
	C540.292969,62.362633 544.117554,62.479755 547.928162,62.300167 
	C549.292969,62.235847 550.624023,61.455055 552.135010,60.087158 
	C552.074585,56.057484 552.014221,52.027805 552.058350,47.426815 
	C551.030884,47.265862 550.003479,47.104908 548.251038,46.742634 
	C547.507751,46.809830 546.764465,46.877026 545.239258,46.719700 
	C530.705505,46.719700 516.171753,46.719700 501.213257,46.719700 
	C501.213257,51.592018 501.152618,56.028595 501.292084,60.458878 
	C501.308990,60.995880 502.404968,61.498917 503.915192,62.199081 
	C508.529755,62.161171 513.144348,62.123260 518.056396,62.970314 
	C518.097900,64.800171 518.175354,66.630028 518.175598,68.459892 
	C518.179993,98.277718 518.150635,128.095627 518.248779,157.913101 
	C518.253235,159.264053 519.389465,160.611267 520.915710,162.123520 
M742.904968,162.073395 
	C747.837158,162.073395 752.769287,162.073395 758.101196,162.073395 
	C758.101196,128.661896 758.101196,95.793587 758.101196,62.531017 
	C762.647827,62.531017 766.810364,62.798588 770.904907,62.387791 
	C772.364075,62.241390 774.692871,60.577309 774.839233,59.386585 
	C775.333862,55.361485 775.027832,51.237988 775.027832,47.136227 
	C757.907715,47.136227 741.448730,47.136227 724.118652,46.999321 
	C723.747314,50.579399 723.453979,54.169758 722.983826,57.736809 
	C722.461609,61.698540 723.702332,63.454456 728.051514,63.096638 
	C732.313843,62.745964 736.637146,63.135063 740.880493,64.110451 
	C740.862305,77.432327 740.813049,90.754257 740.833313,104.076080 
	C740.862122,123.050591 740.941833,142.025024 740.933289,161.597000 
	C741.282593,161.698334 741.631897,161.799667 742.904968,162.073395 
M440.969208,85.750473 
	C443.108459,89.806923 444.518738,94.543457 447.537537,97.779327 
	C453.972290,104.676735 460.804474,111.368187 468.286377,117.079536 
	C476.508575,123.355927 477.861603,131.404190 476.749207,140.542221 
	C476.029419,146.454727 472.930054,148.866104 466.994873,148.981689 
	C465.666473,149.007568 464.337006,148.979965 462.479858,148.599503 
	C461.368378,147.932816 460.256927,147.266129 459.029633,146.023911 
	C458.634247,145.349716 458.238861,144.675522 457.866302,143.059036 
	C457.866302,136.842377 457.866302,130.625732 457.866302,124.492340 
	C451.464417,124.492340 446.228729,124.492340 440.974854,124.492340 
	C440.974854,131.520828 440.974854,138.264236 440.906525,145.797089 
	C443.022400,156.806366 449.831818,162.795441 460.781952,163.095795 
	C465.440887,163.223587 470.112762,163.216248 474.769135,163.030396 
	C483.940216,162.664337 491.237885,157.691650 492.729523,148.688675 
	C494.064972,140.628281 493.978546,132.098160 492.958160,123.971321 
	C492.366882,119.262123 489.508484,114.194763 486.229095,110.605400 
	C480.191010,103.996651 473.616486,97.605705 466.306244,92.496506 
	C455.793762,85.149178 456.432587,75.251511 458.139648,64.857109 
	C458.437134,63.045509 460.794434,60.316025 462.391022,60.175419 
	C473.741028,59.175861 475.807495,59.714622 476.758942,70.818710 
	C477.149719,75.379333 476.823608,80.001381 476.823608,84.664810 
	C482.623383,84.664810 487.870453,84.664810 493.403809,84.664810 
	C493.403809,77.638382 493.845123,70.811272 493.298126,64.064293 
	C492.519897,54.465446 486.537781,47.722279 477.007019,46.684078 
	C469.490967,45.865341 461.689331,46.104973 454.189331,47.140476 
	C446.626434,48.184650 442.039551,54.175907 440.444916,62.662739 
	C440.641418,70.104256 440.837891,77.545776 440.969208,85.750473 
M592.967773,181.942749 
	C593.005371,217.291519 593.042969,252.640305 593.001953,288.845184 
	C603.998291,288.887451 614.994690,288.929718 626.800537,289.034882 
	C638.186829,287.623657 643.020874,283.307678 645.188416,272.109070 
	C645.877625,268.547852 646.096252,264.848511 646.107605,261.211060 
	C646.169617,241.379410 646.325562,221.543610 645.997803,201.716721 
	C645.769531,187.905380 639.263184,180.877106 626.217041,179.773468 
	C616.044434,179.601517 605.872070,179.385757 595.698853,179.335648 
	C594.826843,179.331345 593.949524,180.427429 592.967773,181.942749 
M491.934448,202.766220 
	C488.757782,218.530884 485.581146,234.295563 482.231750,250.917572 
	C477.109222,226.439865 472.158508,202.783081 467.264893,179.399170 
	C458.318634,179.399170 450.085907,179.399170 441.815369,179.399170 
	C441.815369,216.312637 441.815369,252.871262 441.815369,289.448669 
	C447.198944,289.448669 452.261200,289.448669 457.699890,289.448669 
	C457.699890,262.525360 457.699890,235.933945 457.699890,209.342529 
	C458.046600,209.296143 458.393280,209.249771 458.739990,209.203384 
	C464.239197,236.058502 469.738403,262.913605 475.201019,289.590088 
	C480.178894,289.590088 484.450684,289.590088 489.042847,289.590088 
	C494.432587,262.122559 499.786316,234.838745 505.140015,207.554916 
	C505.470764,207.598984 505.801514,207.643051 506.132263,207.687119 
	C506.132263,234.122849 506.132263,260.558594 505.966187,287.845367 
	C506.318085,288.480286 506.656921,289.659302 507.023804,289.668091 
	C512.094421,289.789520 517.168762,289.750122 522.299683,289.750122 
	C522.299683,252.583511 522.299683,216.056564 522.299683,179.147202 
	C514.363892,179.147202 506.733002,179.036301 499.112915,179.273056 
	C498.034637,179.306564 496.324188,180.879608 496.071625,182.002258 
	C494.580963,188.627502 493.435028,195.330292 491.934448,202.766220 
M614.329041,154.950531 
	C614.455811,157.563751 611.669006,161.489929 616.540405,162.114151 
	C621.232178,162.715378 626.061279,162.244232 630.740662,162.244232 
	C631.973450,154.139420 633.093750,146.774078 634.225891,139.330536 
	C641.308289,139.330536 648.186707,139.330536 655.230713,139.330536 
	C656.336060,147.074036 657.402039,154.541946 658.381897,161.406342 
	C664.712219,161.406342 670.415955,161.406342 676.741882,161.406342 
	C669.822510,122.789436 663.044495,84.961792 656.271179,47.160217 
	C648.518555,47.160217 641.385193,47.160217 633.764282,47.160217 
	C627.364563,82.843803 620.975220,118.469254 614.329041,154.950531 
M586.341736,309.926300 
	C583.706665,309.926300 581.071655,309.926300 578.377258,309.926300 
	C574.923279,325.686584 571.551270,341.072998 567.947449,357.517151 
	C563.572815,340.843567 559.511902,325.365692 555.448120,309.876984 
	C550.567322,309.876984 546.219849,309.621765 541.933655,310.022339 
	C540.528320,310.153687 538.550842,311.739502 538.094360,313.086823 
	C536.445679,317.953156 535.353210,323.006500 534.014282,327.979462 
	C531.315002,338.005035 528.591736,348.024139 525.968445,357.713257 
	C522.672607,341.837952 519.360596,325.884857 516.081360,310.089355 
	C511.033325,310.089355 506.736267,310.089355 502.069733,310.089355 
	C507.467407,331.908539 512.791382,353.429932 518.117065,374.958221 
	C522.013123,374.958221 525.353699,374.726349 528.647156,375.021027 
	C532.204407,375.339264 533.882507,374.201630 534.873108,370.568237 
	C538.599854,356.898804 542.707092,343.333069 546.967712,328.712952 
	C551.265808,344.677246 555.331482,359.778076 559.423096,374.975372 
	C560.723999,374.975372 561.541138,374.969208 562.358215,374.976288 
	C575.318237,375.088715 575.410889,375.111969 578.511902,362.539703 
	C582.795715,345.171783 586.922913,327.765198 591.180359,310.113525 
	C589.553467,310.034912 588.408142,309.979553 586.341736,309.926300 
M684.912415,106.499985 
	C684.912415,124.910553 684.912415,143.321121 684.912415,161.766449 
	C699.505920,161.766449 713.551636,161.766449 727.621582,161.766449 
	C727.621582,156.522034 727.621582,151.613815 727.621582,146.126648 
	C719.008362,146.126648 710.636292,146.126648 701.807007,146.126648 
	C701.807007,112.699417 701.807007,79.855827 701.807007,47.276688 
	C695.905457,47.276688 690.490784,47.276688 684.911865,47.276688 
	C684.911865,66.909271 684.911865,86.204620 684.912415,106.499985 
M731.254272,364.006165 
	C720.977905,368.460266 712.346863,363.537109 712.527832,353.503479 
	C723.943420,352.973419 735.350647,352.443787 747.205261,351.893341 
	C746.795410,348.514618 746.541321,345.722321 746.106323,342.958527 
	C744.454529,332.463440 738.841003,326.966492 728.120483,325.249664 
	C716.845398,323.444000 707.383301,327.435059 702.895569,336.093994 
	C698.547058,344.484528 699.407776,353.159882 701.982483,361.818237 
	C704.001160,368.606903 708.678162,373.422516 715.394775,374.590515 
	C721.455872,375.644501 727.944458,375.294525 734.094910,374.460541 
	C739.414917,373.739166 743.309082,369.998566 745.479065,364.919464 
	C747.317932,360.615601 746.282898,359.371796 741.781250,358.867554 
	C737.322693,358.368164 734.072510,359.642059 731.254272,364.006165 
M666.029968,336.495392 
	C662.346008,325.575897 660.661865,324.650146 649.882263,327.236511 
	C655.366699,343.005554 660.914062,358.805573 666.342468,374.646362 
	C668.201050,380.069946 666.226379,382.919922 660.564026,383.345734 
	C658.824707,383.476532 657.067322,383.366028 655.446045,383.366028 
	C655.446045,386.893616 655.446045,389.797180 655.446045,392.645721 
	C669.534302,394.176849 673.234985,392.016663 678.268250,379.493164 
	C680.122864,374.878967 681.912170,370.238403 683.712585,365.602631 
	C688.713379,352.726562 693.704285,339.846619 698.806580,326.691284 
	C696.798340,326.691284 695.100830,326.941010 693.504028,326.646027 
	C687.937927,325.617828 685.293335,327.776550 683.774597,333.332153 
	C681.233276,342.628448 677.760254,351.670013 674.357239,361.775360 
	C671.423645,352.969299 668.809082,345.120758 666.029968,336.495392 
z"/>
<path fill="#E5E3DD" opacity="1.000000" stroke="none" 
	d="
M6.021750,185.005859 
	C7.693421,155.637131 15.953609,128.157242 30.482935,102.677322 
	C52.479328,64.102470 83.216415,34.967979 124.462219,17.595520 
	C141.983917,10.215503 160.102905,4.913500 179.076523,2.813631 
	C179.960663,2.715779 180.786194,2.088257 181.319519,1.353707 
	C197.687561,1.000000 214.375122,1.000000 231.531342,1.000002 
	C232.819214,1.648014 233.572464,2.747900 234.467209,2.878529 
	C263.554291,7.125062 290.435089,17.228701 314.718323,33.764874 
	C362.248840,66.131775 391.935272,110.650360 400.502411,167.498535 
	C410.079132,231.045853 393.102081,287.460205 349.079834,334.987366 
	C316.065582,370.630127 274.884674,390.879211 226.997162,396.575470 
	C169.642090,403.397919 118.582718,387.374420 74.604179,350.009186 
	C32.685303,314.393860 10.612118,268.447815 6.219298,213.133331 
	C6.625650,203.843750 6.760826,195.306854 6.824896,186.769455 
	C6.829293,186.183624 6.301857,185.593811 6.021750,185.005859 
M385.993439,208.738785 
	C385.959106,206.817108 385.924774,204.895416 385.639740,202.119293 
	C385.718719,199.756561 385.797668,197.393814 386.490356,194.492798 
	C386.068573,191.334045 385.646820,188.175308 384.981506,184.188034 
	C384.698944,181.712967 384.458588,179.232239 384.127625,176.763672 
	C377.508148,127.390854 354.177979,87.524368 315.186310,56.860683 
	C286.419769,34.238232 253.316635,22.564489 216.710999,18.982090 
	C213.463577,19.030321 210.216141,19.078550 206.105576,19.367464 
	C203.432617,19.343794 200.759659,19.320124 197.617355,18.653706 
	C196.024841,18.991512 194.432343,19.329321 192.133270,19.919230 
	C183.729431,21.038589 175.212112,21.618654 166.939087,23.359613 
	C69.805176,43.800278 3.282979,139.834091 28.351036,242.668015 
	C49.193916,328.169464 133.809845,388.321991 221.348297,379.159576 
	C270.212067,374.045135 310.799957,352.578613 342.766357,315.358582 
	C368.981598,284.834900 382.729462,249.075073 385.993439,208.738785 
z"/>
<path fill="#E5E2DC" opacity="1.000000" stroke="none" 
	d="
M506.132263,286.994324 
	C506.132263,260.558594 506.132263,234.122849 506.132263,207.687119 
	C505.801514,207.643051 505.470764,207.598984 505.140015,207.554916 
	C499.786316,234.838745 494.432587,262.122559 489.042847,289.590088 
	C484.450684,289.590088 480.178894,289.590088 475.201019,289.590088 
	C469.738403,262.913605 464.239197,236.058502 458.739990,209.203384 
	C458.393280,209.249771 458.046600,209.296143 457.699890,209.342529 
	C457.699890,235.933945 457.699890,262.525360 457.699890,289.448669 
	C452.261200,289.448669 447.198944,289.448669 441.815369,289.448669 
	C441.815369,252.871262 441.815369,216.312637 441.815369,179.399170 
	C450.085907,179.399170 458.318634,179.399170 467.264893,179.399170 
	C472.158508,202.783081 477.109222,226.439865 482.231750,250.917572 
	C485.581146,234.295563 488.757782,218.530884 492.408203,202.283783 
	C494.232544,196.252380 495.771118,190.739822 496.855194,185.139282 
	C497.406219,182.292465 498.299286,181.223969 501.409393,181.548096 
	C505.414825,181.965530 509.530884,181.986908 513.536499,181.572083 
	C518.809082,181.026047 519.996033,181.788696 519.998352,187.200668 
	C520.009277,212.971695 520.002808,238.742737 520.002319,264.513763 
	C520.002197,270.945801 520.025146,277.377991 519.987854,283.809814 
	C519.974365,286.138245 519.853699,288.040131 516.346313,287.386139 
	C513.032471,286.768280 509.543945,287.087372 506.132263,286.994324 
z"/>
<path fill="#E5E3DD" opacity="1.000000" stroke="none" 
	d="
M614.457458,154.522614 
	C620.975220,118.469254 627.364563,82.843803 633.764282,47.160217 
	C641.385193,47.160217 648.518555,47.160217 656.271179,47.160217 
	C663.044495,84.961792 669.822510,122.789436 676.741882,161.406342 
	C670.415955,161.406342 664.712219,161.406342 658.381897,161.406342 
	C657.402039,154.541946 656.336060,147.074036 655.230713,139.330536 
	C648.186707,139.330536 641.308289,139.330536 634.225891,139.330536 
	C633.093750,146.774078 631.973450,154.139420 630.740662,162.244232 
	C626.061279,162.244232 621.232178,162.715378 616.540405,162.114151 
	C611.669006,161.489929 614.455811,157.563751 614.457458,154.522614 
M637.689819,123.000183 
	C642.760559,123.000183 647.831299,123.000183 653.279907,123.000183 
	C650.627319,105.338554 648.086426,88.420670 645.545593,71.502785 
	C644.982239,71.562416 644.418884,71.622040 643.855530,71.681671 
	C641.520447,88.635910 639.185364,105.590157 637.689819,123.000183 
z"/>
<path fill="#E5E3DD" opacity="1.000000" stroke="none" 
	d="
M593.080566,287.989075 
	C593.042969,252.640305 593.005371,217.291519 593.479980,181.435822 
	C598.293213,181.076981 602.603149,181.470535 606.893433,181.316544 
	C613.601746,181.075745 620.296753,180.464386 626.997437,180.010010 
	C639.263184,180.877106 645.769531,187.905380 645.997803,201.716721 
	C646.325562,221.543610 646.169617,241.379410 646.107605,261.211060 
	C646.096252,264.848511 645.877625,268.547852 645.188416,272.109070 
	C643.020874,283.307678 638.186829,287.623657 626.069092,288.753174 
	C614.585266,288.310699 603.832947,288.149902 593.080566,287.989075 
M629.989746,265.718994 
	C630.324280,264.841339 630.948303,263.964508 630.950867,263.085876 
	C631.007080,243.586990 631.026245,224.087753 630.918762,204.589310 
	C630.912170,203.394943 629.801086,202.206696 628.924133,200.331802 
	C626.287109,194.040451 621.658386,192.578323 610.182251,194.448715 
	C610.182251,221.136673 610.182251,247.836655 610.182251,274.507080 
	C623.368713,276.131134 627.220947,274.382233 629.989746,265.718994 
z"/>
<path fill="#E6E4DD" opacity="1.000000" stroke="none" 
	d="
M803.011536,161.926453 
	C798.648438,161.993347 794.285278,162.060242 789.427979,161.598343 
	C788.958252,123.063438 788.982788,85.057320 789.007324,47.051208 
	C793.372742,47.020386 797.738220,46.989567 802.689697,47.239529 
	C803.501221,47.749561 803.766907,47.913944 804.072815,48.013466 
	C804.072815,63.739689 804.072815,79.465912 804.072815,95.728043 
	C811.237732,95.728043 817.951111,95.728043 825.343018,95.261452 
	C826.346497,93.054504 826.944092,91.315575 826.953247,89.573555 
	C827.027832,75.422783 826.992188,61.271439 826.990112,47.120266 
	C831.362732,47.063000 835.735291,47.005737 840.685913,47.232925 
	C841.475769,47.743694 841.728638,47.906006 842.022644,48.004314 
	C842.115845,52.310295 842.287292,56.616230 842.289856,60.922264 
	C842.309448,93.972282 842.296143,127.022324 841.962646,160.630417 
	C841.343201,161.358261 841.137085,161.599060 841.013794,161.910858 
	C835.700623,161.594986 830.387512,161.279114 825.564575,160.369980 
	C826.354187,159.035034 826.911804,158.294464 826.914978,157.551498 
	C826.977661,143.002747 827.013489,128.453430 826.902588,113.905388 
	C826.895203,112.930138 825.676941,111.964119 825.021912,110.993805 
	C818.269409,110.993797 811.516968,110.993797 804.279053,110.993797 
	C804.279053,127.654793 804.279053,143.865112 803.948608,160.634521 
	C803.331604,161.368057 803.129395,161.612335 803.011536,161.926453 
z"/>
<path fill="#E5E3DD" opacity="1.000000" stroke="none" 
	d="
M440.912354,61.969975 
	C442.039551,54.175907 446.626434,48.184650 454.189331,47.140476 
	C461.689331,46.104973 469.490967,45.865341 477.007019,46.684078 
	C486.537781,47.722279 492.519897,54.465446 493.298126,64.064293 
	C493.845123,70.811272 493.403809,77.638382 493.403809,84.664810 
	C487.870453,84.664810 482.623383,84.664810 476.823608,84.664810 
	C476.823608,80.001381 477.149719,75.379333 476.758942,70.818710 
	C475.807495,59.714622 473.741028,59.175861 462.391022,60.175419 
	C460.794434,60.316025 458.437134,63.045509 458.139648,64.857109 
	C456.432587,75.251511 455.793762,85.149178 466.306244,92.496506 
	C473.616486,97.605705 480.191010,103.996651 486.229095,110.605400 
	C489.508484,114.194763 492.366882,119.262123 492.958160,123.971321 
	C493.978546,132.098160 494.064972,140.628281 492.729523,148.688675 
	C491.237885,157.691650 483.940216,162.664337 474.769135,163.030396 
	C470.112762,163.216248 465.440887,163.223587 460.781952,163.095795 
	C449.831818,162.795441 443.022400,156.806366 441.333374,145.301086 
	C442.173523,140.486069 442.926849,136.164963 442.900238,131.848648 
	C442.875854,127.888321 444.109009,125.965424 448.239532,125.959267 
	C452.259766,125.953270 455.765289,126.469681 455.935577,131.485779 
	C456.013153,133.770264 455.168793,136.125885 455.469666,138.350922 
	C455.734009,140.305649 457.012756,142.123184 457.843475,144.001328 
	C458.238861,144.675522 458.634247,145.349716 459.084717,146.659668 
	C460.429199,147.855927 461.718597,148.416443 463.008026,148.976974 
	C464.337006,148.979965 465.666473,149.007568 466.994873,148.981689 
	C472.930054,148.866104 476.029419,146.454727 476.749207,140.542221 
	C477.861603,131.404190 476.508575,123.355927 468.286377,117.079536 
	C460.804474,111.368187 453.972290,104.676735 447.537537,97.779327 
	C444.518738,94.543457 443.108459,89.806923 441.273804,85.056458 
	C441.356384,76.898277 441.134369,69.434128 440.912354,61.969975 
z"/>
<path fill="#E5E2DC" opacity="1.000000" stroke="none" 
	d="
M586.802246,309.925262 
	C588.408142,309.979553 589.553467,310.034912 591.180359,310.113525 
	C586.922913,327.765198 582.795715,345.171783 578.511902,362.539703 
	C575.410889,375.111969 575.318237,375.088715 562.358215,374.976288 
	C561.541138,374.969208 560.723999,374.975372 559.423096,374.975372 
	C555.331482,359.778076 551.265808,344.677246 546.967712,328.712952 
	C542.707092,343.333069 538.599854,356.898804 534.873108,370.568237 
	C533.882507,374.201630 532.204407,375.339264 528.647156,375.021027 
	C525.353699,374.726349 522.013123,374.958221 518.117065,374.958221 
	C512.791382,353.429932 507.467407,331.908539 502.069733,310.089355 
	C506.736267,310.089355 511.033325,310.089355 516.081360,310.089355 
	C519.360596,325.884857 522.672607,341.837952 525.968445,357.713257 
	C528.591736,348.024139 531.315002,338.005035 534.014282,327.979462 
	C535.353210,323.006500 536.445679,317.953156 538.094360,313.086823 
	C538.550842,311.739502 540.528320,310.153687 541.933655,310.022339 
	C546.219849,309.621765 550.567322,309.876984 555.448120,309.876984 
	C559.511902,325.365692 563.572815,340.843567 567.947449,357.517151 
	C571.551270,341.072998 574.923279,325.686584 578.377258,309.926300 
	C581.071655,309.926300 583.706665,309.926300 586.802246,309.925262 
z"/>
<path fill="#E4E2DB" opacity="1.000000" stroke="none" 
	d="
M604.041138,46.855141 
	C604.526550,51.771923 605.011902,56.688705 605.547546,62.114613 
	C597.164734,62.114613 589.593506,62.114613 581.166504,62.175640 
	C579.878418,63.031216 579.079102,63.821682 579.070190,64.620941 
	C578.975220,73.164291 578.958618,81.709641 579.068909,90.252518 
	C579.080688,91.165833 580.032654,92.067009 580.548462,92.973816 
	C580.637512,95.230820 581.321533,96.463936 584.072266,96.352440 
	C590.135010,96.106682 596.214600,96.276100 602.605408,96.276100 
	C602.605408,101.286263 602.605408,105.852051 602.605408,111.385994 
	C595.541443,111.385994 588.354004,111.385994 580.503601,111.867004 
	C579.580811,112.753609 579.096497,113.157852 579.094055,113.564987 
	C579.034668,123.533897 578.981689,133.503586 579.088013,143.471436 
	C579.097351,144.340164 580.215515,145.197067 580.818604,146.059464 
	C580.818604,146.059464 580.956543,146.061630 581.106018,146.492096 
	C581.943115,147.276886 582.627136,147.930832 583.318909,147.939072 
	C590.082092,148.019714 596.847168,148.038101 603.609680,147.935318 
	C604.403015,147.923264 605.183716,147.075348 605.970276,146.614929 
	C606.477661,151.622406 606.985046,156.629913 607.541260,162.119568 
	C604.422485,162.119568 602.164734,162.119568 599.289917,161.865158 
	C598.115723,161.738495 597.558655,161.866257 597.001526,161.994019 
	C594.628418,162.038666 592.255371,162.083313 589.116150,161.811737 
	C582.037415,161.362930 575.721130,161.046722 569.413513,161.169891 
	C565.893799,161.238632 564.822815,159.997696 564.832397,156.540436 
	C564.928406,121.875969 564.944031,87.210922 564.817139,52.546654 
	C564.802856,48.645149 566.293091,47.772636 569.836975,47.840084 
	C579.499573,48.023983 589.168579,47.951248 598.833679,47.851601 
	C600.572754,47.833668 602.305481,47.202942 604.041138,46.855141 
z"/>
<path fill="#E7E4DE" opacity="1.000000" stroke="none" 
	d="
M724.989746,47.136227 
	C741.448730,47.136227 757.907715,47.136227 775.027832,47.136227 
	C775.027832,51.237988 775.333862,55.361485 774.839233,59.386585 
	C774.692871,60.577309 772.364075,62.241390 770.904907,62.387791 
	C766.810364,62.798588 762.647827,62.531017 758.101196,62.531017 
	C758.101196,95.793587 758.101196,128.661896 758.101196,162.073395 
	C752.769287,162.073395 747.837158,162.073395 742.328491,161.789246 
	C741.547241,161.268280 741.296509,161.099731 740.999878,160.999496 
	C740.941833,142.025024 740.862122,123.050591 740.833313,104.076080 
	C740.813049,90.754257 740.862305,77.432327 740.846191,63.245827 
	C736.877625,61.920483 732.950867,61.197678 729.006592,61.085072 
	C726.050110,61.000664 724.782227,60.128391 724.956177,57.061005 
	C725.143188,53.762711 724.992859,50.445297 724.989746,47.136227 
z"/>
<path fill="#E8E7E2" opacity="1.000000" stroke="none" 
	d="
M574.588257,275.022858 
	C575.624390,274.973511 576.660461,274.924194 578.175659,275.372253 
	C578.650940,276.314240 578.647217,276.758881 578.643555,277.203522 
	C578.917114,277.135834 579.429932,277.057404 579.427490,277.002075 
	C579.401001,276.411957 579.292908,275.825470 579.207275,275.238007 
	C579.898926,275.703857 581.172791,276.148163 581.190979,276.638977 
	C581.349121,280.912323 581.282227,285.193970 581.282227,289.775085 
	C567.233704,289.775085 553.666931,289.804016 540.101196,289.699188 
	C539.335266,289.693298 538.577942,288.589050 538.351685,287.790619 
	C539.334167,287.498688 539.781616,287.412170 540.229004,287.325684 
	C540.130676,287.064178 540.032410,286.802673 539.934143,286.541138 
	C539.396484,286.769714 538.858887,286.998291 538.321228,287.226868 
	C538.162476,275.533234 538.003723,263.839600 538.314758,251.800842 
	C538.970032,251.291428 539.155579,251.127136 539.341064,250.962830 
	C538.999084,250.999222 538.657043,251.035599 538.315063,251.071976 
	C538.149109,246.906342 537.983093,242.740692 538.348999,238.048401 
	C540.239990,233.760529 541.610413,229.998367 537.991943,226.643906 
	C537.931152,225.253387 537.870300,223.862869 538.316956,221.998627 
	C540.322266,219.869247 541.095093,218.373062 537.989746,217.729889 
	C537.936462,216.572968 537.883179,215.416061 538.307739,213.857666 
	C538.970886,213.291565 539.156311,213.126953 539.341675,212.962326 
	C538.998352,212.997803 538.655029,213.033295 538.311707,213.068771 
	C538.139526,206.872574 537.967285,200.676376 538.334290,193.990875 
	C539.249817,191.993073 539.767456,190.502975 539.966858,188.971466 
	C540.220947,187.019882 539.561096,184.573669 540.523499,183.203384 
	C541.363464,182.007370 543.906250,182.007248 545.696716,181.478790 
	C545.562683,181.084213 545.428650,180.689651 545.294617,180.295074 
	C542.852966,181.198349 540.411255,182.101608 537.969604,183.004883 
	C537.969604,181.873245 537.969604,180.741608 537.969604,179.371994 
	C552.229736,179.371994 566.295593,179.371994 580.751160,179.371994 
	C580.751160,184.388504 580.751160,189.291992 580.311279,194.078644 
	C579.573059,193.631546 579.274658,193.301270 578.886902,192.818588 
	C578.534912,192.773758 578.272339,192.881348 577.542969,192.993500 
	C572.381348,192.996262 567.686462,192.994476 562.776489,192.740463 
	C561.377197,192.656082 560.193176,192.823929 558.631958,192.995575 
	C557.500427,192.996490 556.746094,192.993576 555.900757,192.834412 
	C555.539856,192.784119 555.269958,192.890060 555.002319,193.289490 
	C554.976257,193.972046 554.947815,194.361115 554.919312,194.750183 
	C554.919312,194.750183 554.945312,194.922989 554.545776,195.036896 
	C553.761108,196.102386 553.375854,197.053955 552.605591,198.061920 
	C548.690002,201.611954 549.049500,207.607849 552.996765,211.459351 
	C552.998901,215.950058 552.997009,219.977295 552.838867,224.094910 
	C552.624634,224.289352 552.491638,224.446075 552.521301,224.488358 
	C552.651917,224.674088 552.829590,224.826752 553.155884,225.224289 
	C553.853271,225.645996 554.384949,225.834808 554.916626,226.023605 
	C561.788513,226.023605 568.660400,226.023605 576.053528,226.023605 
	C576.053528,228.619324 576.053528,230.860260 575.579529,233.551910 
	C574.025330,234.297501 572.201355,234.326569 571.985596,234.930359 
	C570.578430,238.867874 567.384155,237.926697 564.543884,237.988052 
	C562.396118,238.034454 560.201355,237.744217 558.116577,238.110764 
	C557.026367,238.302429 556.128235,239.586700 555.143311,240.377518 
	C555.143311,240.377518 555.064453,240.809128 554.527344,241.043152 
	C553.656921,243.520035 553.323547,245.762878 552.624146,248.054901 
	C551.560059,248.746902 550.280212,249.369354 550.256836,250.035843 
	C550.083008,254.995895 549.995117,259.974243 550.284546,264.923218 
	C550.347351,265.996094 552.045654,266.973297 552.994995,268.387939 
	C553.535645,270.515625 554.071960,272.249969 554.608276,273.984314 
	C555.230652,274.274078 555.853088,274.563873 556.560059,275.297607 
	C556.889526,276.409546 557.118103,277.653107 557.381714,277.660583 
	C562.946472,277.818542 568.515747,277.864868 574.080994,277.762543 
	C574.266846,277.759125 574.419922,275.976257 574.588257,275.022858 
M560.694946,228.005585 
	C559.342285,228.181900 557.989624,228.358215 556.637024,228.534531 
	C556.709778,228.810196 556.782593,229.085846 556.855347,229.361511 
	C560.325989,229.361511 563.796570,229.361511 567.267151,229.361511 
	C567.258179,228.909500 567.249146,228.457504 567.240173,228.005493 
	C565.350464,228.005493 563.460754,228.005493 560.694946,228.005585 
M560.142090,181.006012 
	C558.513000,181.006012 556.883911,181.006012 555.254822,181.006012 
	C555.279785,181.237244 555.304749,181.468475 555.329712,181.699707 
	C557.817261,181.699707 560.304810,181.699707 562.792358,181.699707 
	C562.795288,181.531601 562.798218,181.363495 562.801147,181.195374 
	C562.166992,181.132629 561.532837,181.069870 560.142090,181.006012 
M571.425720,229.189575 
	C571.797546,229.194077 572.169556,229.202042 572.540161,229.183701 
	C572.549744,229.183228 572.555481,228.760681 572.545410,228.759888 
	C572.175232,228.730942 571.802979,228.728607 571.425720,229.189575 
M572.815613,181.472076 
	C573.227051,181.544159 573.638489,181.616226 574.049927,181.688293 
	C573.737000,181.515686 573.424011,181.343079 572.815613,181.472076 
M550.079468,181.182098 
	C550.127502,181.405411 550.175537,181.628723 550.223511,181.852036 
	C550.516357,181.772034 550.809265,181.692047 551.102112,181.612061 
	C550.901611,181.442322 550.701111,181.272583 550.079468,181.182098 
M579.483093,287.570374 
	C579.483093,287.570374 579.430542,287.476440 579.483093,287.570374 
M578.514221,181.430313 
	C578.514221,181.430313 578.566406,181.523438 578.514221,181.430313 
z"/>
<path fill="#E7E4DE" opacity="1.000000" stroke="none" 
	d="
M684.912109,105.999977 
	C684.911865,86.204620 684.911865,66.909271 684.911865,47.276688 
	C690.490784,47.276688 695.905457,47.276688 701.807007,47.276688 
	C701.807007,79.855827 701.807007,112.699417 701.807007,146.126648 
	C710.636292,146.126648 719.008362,146.126648 727.621582,146.126648 
	C727.621582,151.613815 727.621582,156.522034 727.621582,161.766449 
	C713.551636,161.766449 699.505920,161.766449 684.912415,161.766449 
	C684.912415,143.321121 684.912415,124.910553 684.912109,105.999977 
z"/>
<path fill="#E3E1DA" opacity="1.000000" stroke="none" 
	d="
M517.758911,62.085346 
	C513.144348,62.123260 508.529755,62.161171 503.461670,61.641342 
	C503.007721,58.587494 503.239044,56.064709 502.955536,53.601181 
	C502.462952,49.321297 503.847168,47.756172 508.412903,47.898411 
	C519.218994,48.235050 530.042969,48.053841 540.858643,47.960133 
	C542.582275,47.945198 544.300476,47.298721 546.021179,46.944221 
	C546.764465,46.877026 547.507751,46.809830 548.816528,47.107903 
	C550.239319,47.648159 551.096558,47.823143 551.953857,47.998131 
	C552.014221,52.027805 552.074585,56.057484 551.586853,60.539703 
	C547.383057,60.992119 543.702271,61.262199 540.077820,60.925999 
	C535.138489,60.467834 533.881287,62.561283 533.906372,67.247284 
	C534.075073,98.818039 533.998535,130.390121 534.001465,161.961761 
	C529.639526,162.015686 525.277649,162.069611 520.461060,161.575790 
	C520.006409,129.760025 520.041870,98.491821 519.910583,67.224335 
	C519.903381,65.508354 518.508057,63.798206 517.758911,62.085346 
z"/>
<path fill="#E6E3DD" opacity="1.000000" stroke="none" 
	d="
M453.998199,373.999634 
	C450.318848,374.342804 446.639465,374.685974 442.631531,374.540771 
	C442.465881,371.919556 442.759247,369.787445 442.771240,367.653717 
	C442.879272,348.450165 442.937958,329.246307 443.011139,310.042542 
	C454.164581,310.018890 465.320953,309.822998 476.470856,310.010040 
	C495.478668,310.328857 499.075470,323.687744 494.463593,338.241180 
	C492.675476,343.883636 487.609375,346.038269 481.888824,347.465057 
	C486.461975,356.534210 490.918854,365.372742 495.773102,374.999359 
	C491.144592,374.999359 487.082214,375.184845 483.058014,374.875031 
	C481.990021,374.792816 480.641113,373.379974 480.098846,372.252258 
	C476.442688,364.649170 472.968933,356.958405 469.401520,349.221008 
	C464.622223,349.221008 459.810455,349.221008 454.254242,349.221008 
	C454.254242,356.913818 454.254242,364.497101 453.983612,372.630737 
	C453.645264,373.281799 453.498108,373.438385 453.523102,373.473969 
	C453.657867,373.665771 453.835419,373.827515 453.998199,373.999634 
M477.399902,320.580292 
	C469.690247,320.580292 461.980591,320.580292 454.471008,320.580292 
	C454.471008,326.881531 454.471008,332.825195 454.471008,339.136047 
	C461.068237,339.136047 467.371887,339.196411 473.673767,339.117493 
	C478.985382,339.051025 482.616821,336.361511 483.739166,331.881958 
	C484.850677,327.445618 482.925385,323.659454 477.399902,320.580292 
z"/>
<path fill="#E4E2DB" opacity="1.000000" stroke="none" 
	d="
M640.997986,347.011627 
	C636.344299,347.096497 631.690979,347.213226 627.036926,347.257111 
	C622.561035,347.299347 618.084534,347.266235 613.216431,347.266235 
	C613.216431,352.529327 613.216431,357.560211 613.216431,362.967865 
	C623.215515,362.967865 633.302795,362.967865 643.768555,362.967865 
	C643.768555,367.029938 643.768555,370.736572 643.768555,374.729950 
	C629.432983,374.729950 615.025757,374.729950 600.281433,374.729950 
	C600.281433,353.368073 600.281433,331.977173 600.281433,310.235352 
	C614.631104,310.235352 629.157410,310.235352 644.114075,310.235352 
	C644.114075,313.195251 644.114075,316.141449 643.570801,319.538971 
	C634.559509,319.994019 626.089905,319.912964 617.625000,320.077576 
	C616.051880,320.108124 614.497925,321.127167 612.935059,321.690002 
	C612.935059,326.304077 612.935059,330.918152 612.935059,335.999969 
	C617.856995,335.999969 622.475891,335.999969 627.620483,336.397705 
	C629.092224,336.590851 630.038330,336.386261 630.984497,336.181671 
	C632.713135,336.125244 634.441833,336.068817 636.675659,336.424438 
	C638.448669,336.619324 639.716553,336.402100 640.984375,336.184875 
	C641.331055,339.164764 641.677795,342.144623 641.763794,345.680817 
	C641.259888,346.446533 641.091492,346.704681 640.997986,347.011627 
z"/>
<path fill="#E4E2DB" opacity="1.000000" stroke="none" 
	d="
M731.579285,363.790710 
	C734.072510,359.642059 737.322693,358.368164 741.781250,358.867554 
	C746.282898,359.371796 747.317932,360.615601 745.479065,364.919464 
	C743.309082,369.998566 739.414917,373.739166 734.094910,374.460541 
	C727.944458,375.294525 721.455872,375.644501 715.394775,374.590515 
	C708.678162,373.422516 704.001160,368.606903 701.982483,361.818237 
	C699.407776,353.159882 698.547058,344.484528 702.895569,336.093994 
	C707.383301,327.435059 716.845398,323.444000 728.120483,325.249664 
	C738.841003,326.966492 744.454529,332.463440 746.106323,342.958527 
	C746.541321,345.722321 746.795410,348.514618 747.205261,351.893341 
	C735.350647,352.443787 723.943420,352.973419 712.527832,353.503479 
	C712.346863,363.537109 720.977905,368.460266 731.579285,363.790710 
M716.763000,346.124695 
	C722.507202,346.124695 728.251343,346.124695 734.001404,346.124695 
	C733.649963,337.686859 729.905151,333.329498 723.611450,333.342072 
	C716.670166,333.355957 712.832397,337.588470 712.401672,345.867950 
	C713.545471,345.946564 714.692322,346.025360 716.763000,346.124695 
z"/>
<path fill="#E4E2DB" opacity="1.000000" stroke="none" 
	d="
M666.112244,336.883789 
	C668.809082,345.120758 671.423645,352.969299 674.357239,361.775360 
	C677.760254,351.670013 681.233276,342.628448 683.774597,333.332153 
	C685.293335,327.776550 687.937927,325.617828 693.504028,326.646027 
	C695.100830,326.941010 696.798340,326.691284 698.806580,326.691284 
	C693.704285,339.846619 688.713379,352.726562 683.712585,365.602631 
	C681.912170,370.238403 680.122864,374.878967 678.268250,379.493164 
	C673.234985,392.016663 669.534302,394.176849 655.446045,392.645721 
	C655.446045,389.797180 655.446045,386.893616 655.446045,383.366028 
	C657.067322,383.366028 658.824707,383.476532 660.564026,383.345734 
	C666.226379,382.919922 668.201050,380.069946 666.342468,374.646362 
	C660.914062,358.805573 655.366699,343.005554 649.882263,327.236511 
	C660.661865,324.650146 662.346008,325.575897 666.112244,336.883789 
z"/>
<path fill="#DCDBD6" opacity="1.000000" stroke="none" 
	d="
M506.049225,287.419861 
	C509.543945,287.087372 513.032471,286.768280 516.346313,287.386139 
	C519.853699,288.040131 519.974365,286.138245 519.987854,283.809814 
	C520.025146,277.377991 520.002197,270.945801 520.002319,264.513763 
	C520.002808,238.742737 520.009277,212.971695 519.998352,187.200668 
	C519.996033,181.788696 518.809082,181.026047 513.536499,181.572083 
	C509.530884,181.986908 505.414825,181.965530 501.409393,181.548096 
	C498.299286,181.223969 497.406219,182.292465 496.855194,185.139282 
	C495.771118,190.739822 494.232544,196.252380 492.527527,201.904144 
	C493.435028,195.330292 494.580963,188.627502 496.071625,182.002258 
	C496.324188,180.879608 498.034637,179.306564 499.112915,179.273056 
	C506.733002,179.036301 514.363892,179.147202 522.299683,179.147202 
	C522.299683,216.056564 522.299683,252.583511 522.299683,289.750122 
	C517.168762,289.750122 512.094421,289.789520 507.023804,289.668091 
	C506.656921,289.659302 506.318085,288.480286 506.049225,287.419861 
z"/>
<path fill="#C9C7C2" opacity="1.000000" stroke="none" 
	d="
M603.662231,46.699478 
	C602.305481,47.202942 600.572754,47.833668 598.833679,47.851601 
	C589.168579,47.951248 579.499573,48.023983 569.836975,47.840084 
	C566.293091,47.772636 564.802856,48.645149 564.817139,52.546654 
	C564.944031,87.210922 564.928406,121.875969 564.832397,156.540436 
	C564.822815,159.997696 565.893799,161.238632 569.413513,161.169891 
	C575.721130,161.046722 582.037415,161.362930 588.675415,161.748886 
	C580.561035,162.002274 572.121338,162.002274 563.478394,162.002274 
	C563.478394,123.618645 563.478394,85.433083 563.478394,46.543808 
	C576.782532,46.543808 590.032959,46.543808 603.662231,46.699478 
z"/>
<path fill="#E8E7E2" opacity="1.000000" stroke="none" 
	d="
M534.433228,162.005432 
	C533.998535,130.390121 534.075073,98.818039 533.906372,67.247284 
	C533.881287,62.561283 535.138489,60.467834 540.077820,60.925999 
	C543.702271,61.262199 547.383057,60.992119 551.504639,60.996758 
	C550.624023,61.455055 549.292969,62.235847 547.928162,62.300167 
	C544.117554,62.479755 540.292969,62.362633 535.833252,62.362633 
	C535.833252,64.114113 535.833557,65.704491 535.833252,67.294868 
	C535.828003,97.222572 535.837891,127.150314 535.776855,157.077911 
	C535.773438,158.735580 535.182434,160.392059 534.433228,162.005432 
z"/>
<path fill="#CECCC7" opacity="1.000000" stroke="none" 
	d="
M788.576172,47.000973 
	C788.982788,85.057320 788.958252,123.063438 788.966431,161.537704 
	C788.385132,160.667633 787.239929,159.331360 787.235046,157.990921 
	C787.130432,129.437439 787.155334,100.883469 787.151428,72.329597 
	C787.150513,65.357140 787.078613,58.383881 787.175293,51.412872 
	C787.195984,49.921307 787.806335,48.437904 788.576172,47.000973 
z"/>
<path fill="#E8E7E2" opacity="1.000000" stroke="none" 
	d="
M517.907654,62.527832 
	C518.508057,63.798206 519.903381,65.508354 519.910583,67.224335 
	C520.041870,98.491821 520.006409,129.760025 520.002502,161.494141 
	C519.389465,160.611267 518.253235,159.264053 518.248779,157.913101 
	C518.150635,128.095627 518.179993,98.277718 518.175598,68.459892 
	C518.175354,66.630028 518.097900,64.800171 517.907654,62.527832 
z"/>
<path fill="#E4E2DB" opacity="1.000000" stroke="none" 
	d="
M457.854919,143.530182 
	C457.012756,142.123184 455.734009,140.305649 455.469666,138.350922 
	C455.168793,136.125885 456.013153,133.770264 455.935577,131.485779 
	C455.765289,126.469681 452.259766,125.953270 448.239532,125.959267 
	C444.109009,125.965424 442.875854,127.888321 442.900238,131.848648 
	C442.926849,136.164963 442.173523,140.486069 441.367554,144.906372 
	C440.974854,138.264236 440.974854,131.520828 440.974854,124.492340 
	C446.228729,124.492340 451.464417,124.492340 457.866302,124.492340 
	C457.866302,130.625732 457.866302,136.842377 457.854919,143.530182 
z"/>
<path fill="#BCBAB6" opacity="1.000000" stroke="none" 
	d="
M442.588715,310.010681 
	C442.937958,329.246307 442.879272,348.450165 442.771240,367.653717 
	C442.759247,369.787445 442.465881,371.919556 442.188110,374.436707 
	C441.790466,373.976654 441.262939,373.132935 441.260864,372.287933 
	C441.212982,352.709656 441.205597,333.131195 441.261200,313.552979 
	C441.264587,312.360748 441.851105,311.170197 442.588715,310.010681 
z"/>
<path fill="#E8E7E2" opacity="1.000000" stroke="none" 
	d="
M545.630249,46.831959 
	C544.300476,47.298721 542.582275,47.945198 540.858643,47.960133 
	C530.042969,48.053841 519.218994,48.235050 508.412903,47.898411 
	C503.847168,47.756172 502.462952,49.321297 502.955536,53.601181 
	C503.239044,56.064709 503.007721,58.587494 503.004517,61.550652 
	C502.404968,61.498917 501.308990,60.995880 501.292084,60.458878 
	C501.152618,56.028595 501.213257,51.592018 501.213257,46.719700 
	C516.171753,46.719700 530.705505,46.719700 545.630249,46.831959 
z"/>
<path fill="#F4F3EE" opacity="1.000000" stroke="none" 
	d="
M826.739258,47.043156 
	C826.992188,61.271439 827.027832,75.422783 826.953247,89.573555 
	C826.944092,91.315575 826.346497,93.054504 825.610291,95.027145 
	C825.178345,79.812477 825.157715,64.365540 825.380127,48.367630 
	C825.821045,47.640038 825.947144,47.421879 826.001465,47.162189 
	C826.163818,47.096809 826.326111,47.031425 826.739258,47.043156 
z"/>
<path fill="#F4F3EE" opacity="1.000000" stroke="none" 
	d="
M825.058105,111.461639 
	C825.676941,111.964119 826.895203,112.930138 826.902588,113.905388 
	C827.013489,128.453430 826.977661,143.002747 826.914978,157.551498 
	C826.911804,158.294464 826.354187,159.035034 825.653809,160.014709 
	C825.200073,144.144958 825.147217,128.037216 825.058105,111.461639 
z"/>
<path fill="#C9C7C2" opacity="1.000000" stroke="none" 
	d="
M626.607239,179.891739 
	C620.296753,180.464386 613.601746,181.075745 606.893433,181.316544 
	C602.603149,181.470535 598.293213,181.076981 593.533386,180.970612 
	C593.949524,180.427429 594.826843,179.331345 595.698853,179.335648 
	C605.872070,179.385757 616.044434,179.601517 626.607239,179.891739 
z"/>
<path fill="#F4F3EE" opacity="1.000000" stroke="none" 
	d="
M580.787964,145.587860 
	C580.215515,145.197067 579.097351,144.340164 579.088013,143.471436 
	C578.981689,133.503586 579.034668,123.533897 579.094055,113.564987 
	C579.096497,113.157852 579.580811,112.753609 580.183533,112.189484 
	C580.603394,123.059380 580.680359,134.087814 580.787964,145.587860 
z"/>
<path fill="#CECCC7" opacity="1.000000" stroke="none" 
	d="
M593.041260,288.417114 
	C603.832947,288.149902 614.585266,288.310699 625.664307,288.721741 
	C614.994690,288.929718 603.998291,288.887451 593.041260,288.417114 
z"/>
<path fill="#F4F3EE" opacity="1.000000" stroke="none" 
	d="
M552.990234,248.005722 
	C553.323547,245.762878 553.656921,243.520035 554.334473,241.147659 
	C554.703918,251.698471 554.729187,262.378815 554.681396,273.521729 
	C554.071960,272.249969 553.535645,270.515625 552.997559,267.920197 
	C552.993958,260.707977 552.992065,254.356842 552.990234,248.005722 
z"/>
<path fill="#F4F3EE" opacity="1.000000" stroke="none" 
	d="
M724.554199,47.067772 
	C724.992859,50.445297 725.143188,53.762711 724.956177,57.061005 
	C724.782227,60.128391 726.050110,61.000664 729.006592,61.085072 
	C732.950867,61.197678 736.877625,61.920483 740.872803,62.790344 
	C736.637146,63.135063 732.313843,62.745964 728.051514,63.096638 
	C723.702332,63.454456 722.461609,61.698540 722.983826,57.736809 
	C723.453979,54.169758 723.747314,50.579399 724.554199,47.067772 
z"/>
<path fill="#F4F3EE" opacity="1.000000" stroke="none" 
	d="
M552.990601,198.005508 
	C553.375854,197.053955 553.761108,196.102386 554.458496,195.038849 
	C554.770569,204.982254 554.770569,215.037643 554.843628,225.558319 
	C554.384949,225.834808 553.853271,225.645996 553.158691,224.977631 
	C552.995850,224.498093 552.995117,224.004517 552.995117,224.004517 
	C552.997009,219.977295 552.998901,215.950058 552.998901,210.996674 
	C552.994812,206.048859 552.992676,202.027176 552.990601,198.005508 
z"/>
<path fill="#F4F3EE" opacity="1.000000" stroke="none" 
	d="
M580.642456,92.515450 
	C580.032654,92.067009 579.080688,91.165833 579.068909,90.252518 
	C578.958618,81.709641 578.975220,73.164291 579.070190,64.620941 
	C579.079102,63.821682 579.878418,63.031216 580.705811,62.133369 
	C580.979370,72.039078 580.857971,82.048080 580.642456,92.515450 
z"/>
<path fill="#F4F3EE" opacity="1.000000" stroke="none" 
	d="
M613.407288,321.664001 
	C614.497925,321.127167 616.051880,320.108124 617.625000,320.077576 
	C626.089905,319.912964 634.559509,319.994019 643.493530,319.996735 
	C642.723633,320.552979 641.494629,321.560333 640.250671,321.579193 
	C631.461975,321.712524 622.670288,321.642883 613.407288,321.664001 
z"/>
<path fill="#CECCC7" opacity="1.000000" stroke="none" 
	d="
M5.896420,185.392426 
	C6.301857,185.593811 6.829293,186.183624 6.824896,186.769455 
	C6.760826,195.306854 6.625650,203.843750 6.258812,212.688721 
	C5.930481,203.924118 5.850784,194.851547 5.896420,185.392426 
z"/>
<path fill="#E3E1DA" opacity="1.000000" stroke="none" 
	d="
M555.601196,240.415375 
	C556.128235,239.586700 557.026367,238.302429 558.116577,238.110764 
	C560.201355,237.744217 562.396118,238.034454 564.543884,237.988052 
	C567.384155,237.926697 570.578430,238.867874 571.985596,234.930359 
	C572.201355,234.326569 574.025330,234.297501 575.499756,233.999207 
	C575.950623,235.072968 576.007202,236.150177 575.774841,237.766190 
	C575.263489,238.554047 575.120972,238.842545 575.058411,239.170532 
	C573.491028,239.598145 571.934509,240.340271 570.354309,240.394455 
	C565.594177,240.557709 560.824890,240.453262 555.601196,240.415375 
z"/>
<path fill="#F4F3EE" opacity="1.000000" stroke="none" 
	d="
M578.976257,192.970978 
	C579.274658,193.301270 579.573059,193.631546 579.927490,194.189789 
	C571.944092,194.506119 563.904541,194.594528 555.392212,194.716553 
	C554.947815,194.361115 554.976257,193.972046 555.250244,193.289093 
	C555.495850,192.995224 555.991760,192.990662 555.991760,192.990662 
	C556.746094,192.993576 557.500427,192.996490 559.030029,192.997940 
	C560.867432,192.995209 561.929565,192.993942 562.991638,192.992676 
	C567.686462,192.994476 572.381348,192.996262 577.784546,192.992554 
	C578.492920,192.987061 578.976257,192.970978 578.976257,192.970978 
z"/>
<path fill="#F4F3EE" opacity="1.000000" stroke="none" 
	d="
M605.518311,146.492752 
	C605.183716,147.075348 604.403015,147.923264 603.609680,147.935318 
	C596.847168,148.038101 590.082092,148.019714 583.318909,147.939072 
	C582.627136,147.930832 581.943115,147.276886 581.096069,146.560394 
	C588.979858,146.255646 597.023071,146.313110 605.518311,146.492752 
z"/>
<path fill="#E3E1DA" opacity="1.000000" stroke="none" 
	d="
M574.321655,274.934784 
	C574.419922,275.976257 574.266846,277.759125 574.080994,277.762543 
	C568.515747,277.864868 562.946472,277.818542 557.381714,277.660583 
	C557.118103,277.653107 556.889526,276.409546 556.913269,275.382812 
	C562.806274,274.964905 568.430664,274.905792 574.321655,274.934784 
z"/>
<path fill="#DCDBD6" opacity="1.000000" stroke="none" 
	d="
M440.678650,62.316357 
	C441.134369,69.434128 441.356384,76.898277 441.306396,84.674866 
	C440.837891,77.545776 440.641418,70.104256 440.678650,62.316357 
z"/>
<path fill="#E3E1DA" opacity="1.000000" stroke="none" 
	d="
M537.868530,183.423737 
	C540.411255,182.101608 542.852966,181.198349 545.294617,180.295074 
	C545.428650,180.689651 545.562683,181.084213 545.696716,181.478790 
	C543.906250,182.007248 541.363464,182.007370 540.523499,183.203384 
	C539.561096,184.573669 540.220947,187.019882 539.966858,188.971466 
	C539.767456,190.502975 539.249817,191.993073 538.426514,193.497192 
	C537.908813,190.276093 537.838135,187.059357 537.868530,183.423737 
z"/>
<path fill="#E3E1DA" opacity="1.000000" stroke="none" 
	d="
M537.900024,226.993240 
	C541.610413,229.998367 540.239990,233.760529 538.439514,237.551849 
	C537.934753,234.168823 537.871399,230.755707 537.900024,226.993240 
z"/>
<path fill="#F4F3EE" opacity="1.000000" stroke="none" 
	d="
M640.590698,336.118958 
	C639.716553,336.402100 638.448669,336.619324 637.099060,336.518616 
	C638.077148,336.151459 639.137085,336.102234 640.590698,336.118958 
z"/>
<path fill="#E4E2DB" opacity="1.000000" stroke="none" 
	d="
M462.743958,148.788239 
	C461.718597,148.416443 460.429199,147.855927 459.142609,146.947418 
	C460.256927,147.266129 461.368378,147.932816 462.743958,148.788239 
z"/>
<path fill="#F4F3EE" opacity="1.000000" stroke="none" 
	d="
M630.617065,336.107330 
	C630.038330,336.386261 629.092224,336.590851 628.081055,336.488983 
	C628.760620,336.132660 629.505127,336.082825 630.617065,336.107330 
z"/>
<path fill="#E3E1DA" opacity="1.000000" stroke="none" 
	d="
M537.900879,218.029449 
	C541.095093,218.373062 540.322266,219.869247 538.407593,221.483032 
	C537.931213,220.403778 537.871643,219.366394 537.900879,218.029449 
z"/>
<path fill="#E8E7E2" opacity="1.000000" stroke="none" 
	d="
M552.006104,47.712471 
	C551.096558,47.823143 550.239319,47.648159 549.179016,47.208565 
	C550.003479,47.104908 551.030884,47.265862 552.006104,47.712471 
z"/>
<path fill="#E3E1DA" opacity="1.000000" stroke="none" 
	d="
M579.189453,275.284363 
	C579.292908,275.825470 579.401001,276.411957 579.427490,277.002075 
	C579.429932,277.057404 578.917114,277.135834 578.643555,277.203522 
	C578.647217,276.758881 578.650940,276.314240 578.919922,275.604370 
	C579.185120,275.339172 579.171692,275.330688 579.189453,275.284363 
z"/>
<path fill="#C9C7C2" opacity="1.000000" stroke="none" 
	d="
M597.187073,162.090576 
	C597.558655,161.866257 598.115723,161.738495 598.834900,161.800339 
	C598.455505,162.055664 597.914062,162.121384 597.187073,162.090576 
z"/>
<path fill="#E3E1DA" opacity="1.000000" stroke="none" 
	d="
M538.362610,287.230286 
	C538.858887,286.998291 539.396484,286.769714 539.934143,286.541138 
	C540.032410,286.802673 540.130676,287.064178 540.229004,287.325684 
	C539.781616,287.412170 539.334167,287.498688 538.554443,287.413574 
	C538.222168,287.241974 538.403992,287.233734 538.362610,287.230286 
z"/>
<path fill="#E3E1DA" opacity="1.000000" stroke="none" 
	d="
M538.352356,213.078156 
	C538.655029,213.033295 538.998352,212.997803 539.341675,212.962326 
	C539.156311,213.126953 538.970886,213.291565 538.514954,213.314697 
	C538.244385,213.173233 538.393005,213.087555 538.352356,213.078156 
z"/>
<path fill="#E3E1DA" opacity="1.000000" stroke="none" 
	d="
M538.355896,251.080292 
	C538.657043,251.035599 538.999084,250.999222 539.341064,250.962830 
	C539.155579,251.127136 538.970032,251.291428 538.515259,251.311981 
	C538.246033,251.168243 538.396729,251.088593 538.355896,251.080292 
z"/>
<path fill="#F4F3EE" opacity="1.000000" stroke="none" 
	d="
M454.094666,373.750854 
	C453.835419,373.827515 453.657867,373.665771 453.523102,373.473969 
	C453.498108,373.438385 453.645264,373.281799 453.871399,373.087250 
	C454.083618,373.162994 454.137390,373.332550 454.094666,373.750854 
z"/>
<path fill="#F4F3EE" opacity="1.000000" stroke="none" 
	d="
M804.100342,47.706757 
	C803.766907,47.913944 803.501221,47.749561 803.149536,47.320724 
	C803.391602,47.214108 803.759766,47.307079 804.100342,47.706757 
z"/>
<path fill="#E6E4DD" opacity="1.000000" stroke="none" 
	d="
M825.738892,47.122551 
	C825.947144,47.421879 825.821045,47.640038 825.452393,47.903389 
	C825.346497,47.687714 825.411377,47.385315 825.738892,47.122551 
z"/>
<path fill="#F4F3EE" opacity="1.000000" stroke="none" 
	d="
M842.045654,47.711617 
	C841.728638,47.906006 841.475769,47.743694 841.144531,47.324108 
	C841.372925,47.226868 841.720825,47.322891 842.045654,47.711617 
z"/>
<path fill="#F4F3EE" opacity="1.000000" stroke="none" 
	d="
M641.309265,347.050079 
	C641.091492,346.704681 641.259888,346.446533 641.709229,346.127136 
	C641.817078,346.374298 641.718811,346.731415 641.309265,347.050079 
z"/>
<path fill="#F4F3EE" opacity="1.000000" stroke="none" 
	d="
M740.966553,161.298248 
	C741.296509,161.099731 741.547241,161.268280 741.866577,161.703064 
	C741.631897,161.799667 741.282593,161.698334 740.966553,161.298248 
z"/>
<path fill="#F4F3EE" opacity="1.000000" stroke="none" 
	d="
M803.321777,161.964478 
	C803.129395,161.612335 803.331604,161.368057 803.836731,161.090820 
	C803.914185,161.326202 803.773071,161.664368 803.321777,161.964478 
z"/>
<path fill="#F4F3EE" opacity="1.000000" stroke="none" 
	d="
M841.322815,161.948593 
	C841.137085,161.599060 841.343201,161.358261 841.851074,161.086548 
	C841.923950,161.318527 841.777893,161.652435 841.322815,161.948593 
z"/>
<path fill="#E8E7E2" opacity="1.000000" stroke="none" 
	d="
M575.320923,239.078369 
	C575.120972,238.842545 575.263489,238.554047 575.683228,238.162018 
	C575.781433,238.341431 575.682434,238.663818 575.320923,239.078369 
z"/>
<path fill="#010101" opacity="1.000000" stroke="none" 
	d="
M216.979477,19.685719 
	C253.316635,22.564489 286.419769,34.238232 315.186310,56.860683 
	C354.177979,87.524368 377.508148,127.390854 384.127625,176.763672 
	C384.458588,179.232239 384.698944,181.712967 385.041260,185.030701 
	C385.359528,188.925949 385.618073,191.978516 385.876617,195.031082 
	C385.797668,197.393814 385.718719,199.756561 385.646912,202.906097 
	C385.546906,205.454895 385.439697,207.216919 385.332489,208.978928 
	C382.729462,249.075073 368.981598,284.834900 342.766357,315.358582 
	C310.799957,352.578613 270.212067,374.045135 221.348297,379.159576 
	C133.809845,388.321991 49.193916,328.169464 28.351036,242.668015 
	C3.282979,139.834091 69.805176,43.800278 166.939087,23.359613 
	C175.212112,21.618654 183.729431,21.038589 192.927780,19.854244 
	C195.177094,19.624990 196.631897,19.460720 198.086700,19.296452 
	C200.759659,19.320124 203.432617,19.343794 206.947296,19.367088 
	C210.852509,19.473047 213.915985,19.579382 216.979477,19.685719 
M279.642365,329.190552 
	C281.059387,328.321106 282.474396,327.448456 283.893677,326.582703 
	C335.024414,295.392944 363.077087,233.614883 353.076782,174.456299 
	C341.780548,107.631157 284.137848,46.943123 197.131104,48.559288 
	C197.131104,63.275085 197.131104,78.014366 197.131104,92.885612 
	C195.326904,93.087807 194.033554,93.263641 192.734619,93.373817 
	C155.620010,96.521896 122.823219,110.634315 94.137268,133.860306 
	C76.307167,148.296707 59.568485,164.093216 42.534298,179.494247 
	C36.161198,185.256332 30.339121,191.627869 24.092718,197.895203 
	C26.530998,200.981201 28.299322,203.606705 30.445343,205.874832 
	C49.676144,226.199860 69.217468,246.213562 91.639336,263.115631 
	C115.112015,280.809814 140.476898,294.680054 169.619354,300.562775 
	C178.667084,302.389130 187.798630,303.800262 197.248413,305.464294 
	C197.248413,319.910217 197.248413,334.325287 197.248413,348.935730 
	C226.473175,349.643005 253.736877,343.808899 279.642365,329.190552 
z"/>
<path fill="#F4F3EE" opacity="1.000000" stroke="none" 
	d="
M386.183472,194.761932 
	C385.618073,191.978516 385.359528,188.925949 385.163025,185.444977 
	C385.646820,188.175308 386.068573,191.334045 386.183472,194.761932 
z"/>
<path fill="#F4F3EE" opacity="1.000000" stroke="none" 
	d="
M216.845245,19.333904 
	C213.915985,19.579382 210.852509,19.473047 207.378876,19.246746 
	C210.216141,19.078550 213.463577,19.030321 216.845245,19.333904 
z"/>
<path fill="#F4F3EE" opacity="1.000000" stroke="none" 
	d="
M385.662964,208.858856 
	C385.439697,207.216919 385.546906,205.454895 385.772247,203.333313 
	C385.924774,204.895416 385.959106,206.817108 385.662964,208.858856 
z"/>
<path fill="#F4F3EE" opacity="1.000000" stroke="none" 
	d="
M197.852020,18.975079 
	C196.631897,19.460720 195.177094,19.624990 193.281067,19.728195 
	C194.432343,19.329321 196.024841,18.991512 197.852020,18.975079 
z"/>
<path fill="#060605" opacity="1.000000" stroke="none" 
	d="
M637.270020,122.772293 
	C639.185364,105.590157 641.520447,88.635910 643.855530,71.681671 
	C644.418884,71.622040 644.982239,71.562416 645.545593,71.502785 
	C648.086426,88.420670 650.627319,105.338554 653.279907,123.000183 
	C647.831299,123.000183 642.760559,123.000183 637.270020,122.772293 
z"/>
<path fill="#010101" opacity="1.000000" stroke="none" 
	d="
M629.256714,265.981934 
	C627.220947,274.382233 623.368713,276.131134 610.182251,274.507080 
	C610.182251,247.836655 610.182251,221.136673 610.182251,194.448715 
	C621.658386,192.578323 626.287109,194.040451 629.023438,201.139801 
	C629.167358,223.292526 629.212036,244.637222 629.256714,265.981934 
z"/>
<path fill="#F4F3EE" opacity="1.000000" stroke="none" 
	d="
M629.623230,265.850464 
	C629.212036,244.637222 629.167358,223.292526 629.163330,201.481705 
	C629.801086,202.206696 630.912170,203.394943 630.918762,204.589310 
	C631.026245,224.087753 631.007080,243.586990 630.950867,263.085876 
	C630.948303,263.964508 630.324280,264.841339 629.623230,265.850464 
z"/>
<path fill="#E3E1DA" opacity="1.000000" stroke="none" 
	d="
M552.624146,248.054901 
	C552.992065,254.356842 552.993958,260.707977 552.993286,267.526855 
	C552.045654,266.973297 550.347351,265.996094 550.284546,264.923218 
	C549.995117,259.974243 550.083008,254.995895 550.256836,250.035843 
	C550.280212,249.369354 551.560059,248.746902 552.624146,248.054901 
z"/>
<path fill="#E3E1DA" opacity="1.000000" stroke="none" 
	d="
M552.605591,198.061920 
	C552.992676,202.027176 552.994812,206.048859 552.994751,210.533203 
	C549.049500,207.607849 548.690002,201.611954 552.605591,198.061920 
z"/>
<path fill="#E3E1DA" opacity="1.000000" stroke="none" 
	d="
M561.132996,228.005539 
	C563.460754,228.005493 565.350464,228.005493 567.240173,228.005493 
	C567.249146,228.457504 567.258179,228.909500 567.267151,229.361511 
	C563.796570,229.361511 560.325989,229.361511 556.855347,229.361511 
	C556.782593,229.085846 556.709778,228.810196 556.637024,228.534531 
	C557.989624,228.358215 559.342285,228.181900 561.132996,228.005539 
z"/>
<path fill="#E3E1DA" opacity="1.000000" stroke="none" 
	d="
M560.520386,181.006561 
	C561.532837,181.069870 562.166992,181.132629 562.801147,181.195374 
	C562.798218,181.363495 562.795288,181.531601 562.792358,181.699707 
	C560.304810,181.699707 557.817261,181.699707 555.329712,181.699707 
	C555.304749,181.468475 555.279785,181.237244 555.254822,181.006012 
	C556.883911,181.006012 558.513000,181.006012 560.520386,181.006561 
z"/>
<path fill="#E3E1DA" opacity="1.000000" stroke="none" 
	d="
M562.776489,192.740448 
	C561.929565,192.993942 560.867432,192.995209 559.407227,192.994110 
	C560.193176,192.823929 561.377197,192.656082 562.776489,192.740448 
z"/>
<path fill="#E3E1DA" opacity="1.000000" stroke="none" 
	d="
M571.428345,228.956116 
	C571.802979,228.728607 572.175232,228.730942 572.545410,228.759888 
	C572.555481,228.760681 572.549744,229.183228 572.540161,229.183701 
	C572.169556,229.202042 571.797546,229.194077 571.428345,228.956116 
z"/>
<path fill="#E3E1DA" opacity="1.000000" stroke="none" 
	d="
M572.963379,181.321274 
	C573.424011,181.343079 573.737000,181.515686 574.049927,181.688293 
	C573.638489,181.616226 573.227051,181.544159 572.963379,181.321274 
z"/>
<path fill="#E3E1DA" opacity="1.000000" stroke="none" 
	d="
M550.290039,181.142471 
	C550.701111,181.272583 550.901611,181.442322 551.102112,181.612061 
	C550.809265,181.692047 550.516357,181.772034 550.223511,181.852036 
	C550.175537,181.628723 550.127502,181.405411 550.290039,181.142471 
z"/>
<path fill="#E3E1DA" opacity="1.000000" stroke="none" 
	d="
M579.456787,287.523407 
	C579.430542,287.476440 579.483093,287.570374 579.456787,287.523407 
z"/>
<path fill="#E3E1DA" opacity="1.000000" stroke="none" 
	d="
M578.540283,181.476868 
	C578.566406,181.523438 578.514221,181.430313 578.540283,181.476868 
z"/>
<path fill="#E3E1DA" opacity="1.000000" stroke="none" 
	d="
M555.900757,192.834412 
	C555.991760,192.990662 555.495850,192.995224 555.247925,192.995621 
	C555.269958,192.890060 555.539856,192.784119 555.900757,192.834412 
z"/>
<path fill="#E3E1DA" opacity="1.000000" stroke="none" 
	d="
M578.886902,192.818573 
	C578.976257,192.970978 578.492920,192.987061 578.251343,192.988007 
	C578.272339,192.881348 578.534912,192.773758 578.886902,192.818573 
z"/>
<path fill="#E3E1DA" opacity="1.000000" stroke="none" 
	d="
M552.838867,224.094910 
	C552.995117,224.004517 552.995850,224.498093 552.993042,224.744751 
	C552.829590,224.826752 552.651917,224.674088 552.521301,224.488358 
	C552.491638,224.446075 552.624634,224.289352 552.838867,224.094910 
z"/>
<path fill="#060605" opacity="1.000000" stroke="none" 
	d="
M477.777344,320.740173 
	C482.925385,323.659454 484.850677,327.445618 483.739166,331.881958 
	C482.616821,336.361511 478.985382,339.051025 473.673767,339.117493 
	C467.371887,339.196411 461.068237,339.136047 454.471008,339.136047 
	C454.471008,332.825195 454.471008,326.881531 454.471008,320.580292 
	C461.980591,320.580292 469.690247,320.580292 477.777344,320.740173 
z"/>
<path fill="#060605" opacity="1.000000" stroke="none" 
	d="
M716.301086,346.114441 
	C714.692322,346.025360 713.545471,345.946564 712.401672,345.867950 
	C712.832397,337.588470 716.670166,333.355957 723.611450,333.342072 
	C729.905151,333.329498 733.649963,337.686859 734.001404,346.124695 
	C728.251343,346.124695 722.507202,346.124695 716.301086,346.114441 
z"/>
<path fill="#E6E3DD" opacity="1.000000" stroke="none" 
	d="
M279.337341,329.394836 
	C253.736877,343.808899 226.473175,349.643005 197.248413,348.935730 
	C197.248413,334.325287 197.248413,319.910217 197.248413,305.464294 
	C187.798630,303.800262 178.667084,302.389130 169.619354,300.562775 
	C140.476898,294.680054 115.112015,280.809814 91.639336,263.115631 
	C69.217468,246.213562 49.676144,226.199860 30.445343,205.874832 
	C28.299322,203.606705 26.530998,200.981201 24.092718,197.895203 
	C30.339121,191.627869 36.161198,185.256332 42.534298,179.494247 
	C59.568485,164.093216 76.307167,148.296707 94.137268,133.860306 
	C122.823219,110.634315 155.620010,96.521896 192.734619,93.373817 
	C194.033554,93.263641 195.326904,93.087807 197.131104,92.885612 
	C197.131104,78.014366 197.131104,63.275085 197.131104,48.559288 
	C284.137848,46.943123 341.780548,107.631157 353.076782,174.456299 
	C363.077087,233.614883 335.024414,295.392944 283.893677,326.582703 
	C282.474396,327.448456 281.059387,328.321106 279.337341,329.394836 
M310.278778,204.480820 
	C309.552765,207.947784 308.629181,211.386597 308.130798,214.885971 
	C301.807465,259.286804 269.567352,293.593689 225.487473,302.573914 
	C220.494308,303.591156 215.364487,303.937561 210.094269,304.621490 
	C210.094269,314.077301 210.091080,323.220001 210.099838,332.362732 
	C210.100601,333.161652 210.179840,333.960541 210.237228,335.032074 
	C212.942062,335.032074 215.400360,335.187500 217.831528,334.996857 
	C221.808044,334.685028 225.842361,334.495544 229.721878,333.653564 
	C285.951080,321.450409 322.002930,287.544983 337.501007,232.226501 
	C340.004120,223.291794 339.976501,213.648071 340.576355,203.646622 
	C331.568115,203.435928 322.560303,203.193314 313.550873,203.066238 
	C312.694153,203.054138 311.827240,203.765030 310.278778,204.480820 
M219.899796,175.405258 
	C222.736984,172.479156 225.574173,169.553070 229.462799,165.542587 
	C223.599075,162.911270 218.855240,160.131302 213.735199,158.664505 
	C208.406708,157.138000 202.714951,156.879486 196.940033,156.030975 
	C196.940033,140.552292 196.940033,125.256287 196.940033,109.953781 
	C163.694351,111.193588 113.133553,145.189667 115.110718,202.338013 
	C116.801346,251.204224 156.789307,291.391174 207.542374,289.521210 
	C264.901917,287.407837 296.674316,236.748611 294.021179,204.446777 
	C285.476379,204.446777 276.880615,204.446777 268.310883,204.446777 
	C268.310883,200.016861 268.310883,196.087601 268.310883,191.672241 
	C277.086914,191.672241 285.625336,191.672241 294.444427,191.672241 
	C292.790649,171.714417 285.635193,154.745926 274.095520,141.469955 
	C257.946289,156.865143 242.195343,171.962738 226.331345,186.940613 
	C222.791733,190.282516 221.068970,193.391159 222.045181,198.839478 
	C223.790070,208.577835 215.301575,217.685211 205.541168,217.931305 
	C194.472961,218.210373 185.993866,208.770996 186.975296,197.262787 
	C187.753708,188.135269 197.460251,180.273926 206.488556,182.405151 
	C211.029022,183.476990 213.685104,182.351044 216.267624,179.132446 
	C217.200867,177.969360 218.352051,176.981155 219.899796,175.405258 
M259.953613,73.504616 
	C244.223282,66.413795 227.737366,62.454506 210.382080,61.307343 
	C210.382080,72.138359 210.382080,82.699883 210.382080,93.544220 
	C234.116089,96.217064 255.465454,104.060730 272.593628,119.514061 
	C280.486389,111.874390 288.189117,104.418678 296.023987,96.835068 
	C285.309967,87.462326 273.596375,79.699272 259.953613,73.504616 
M331.404755,147.122665 
	C325.372620,131.966736 316.490204,118.629463 305.921112,106.684959 
	C298.172028,114.204590 290.570587,121.580948 282.827667,129.094574 
	C298.485809,147.186462 307.445251,167.859909 309.243652,191.593842 
	C320.072693,191.593842 330.634003,191.593842 341.526031,191.593842 
	C340.746490,176.215851 337.475525,161.742615 331.404755,147.122665 
M254.186844,140.689835 
	C257.302216,137.706665 260.417603,134.723495 263.868195,131.419327 
	C248.225784,117.759727 230.701859,110.333664 210.282104,109.164093 
	C210.282104,121.187027 210.282104,132.795197 210.282104,143.365768 
	C219.998428,147.503586 229.169647,151.409271 239.785477,155.930161 
	C243.665695,151.839706 248.697174,146.535629 254.186844,140.689835 
z"/>
<path fill="#010101" opacity="1.000000" stroke="none" 
	d="
M219.651794,175.659210 
	C218.352051,176.981155 217.200867,177.969360 216.267624,179.132446 
	C213.685104,182.351044 211.029022,183.476990 206.488556,182.405151 
	C197.460251,180.273926 187.753708,188.135269 186.975296,197.262787 
	C185.993866,208.770996 194.472961,218.210373 205.541168,217.931305 
	C215.301575,217.685211 223.790070,208.577835 222.045181,198.839478 
	C221.068970,193.391159 222.791733,190.282516 226.331345,186.940613 
	C242.195343,171.962738 257.946289,156.865143 274.095520,141.469955 
	C285.635193,154.745926 292.790649,171.714417 294.444427,191.672241 
	C285.625336,191.672241 277.086914,191.672241 268.310883,191.672241 
	C268.310883,196.087601 268.310883,200.016861 268.310883,204.446777 
	C276.880615,204.446777 285.476379,204.446777 294.021179,204.446777 
	C296.674316,236.748611 264.901917,287.407837 207.542374,289.521210 
	C156.789307,291.391174 116.801346,251.204224 115.110718,202.338013 
	C113.133553,145.189667 163.694351,111.193588 196.940033,109.953781 
	C196.940033,125.256287 196.940033,140.552292 196.940033,156.030975 
	C202.714951,156.879486 208.406708,157.138000 213.735199,158.664505 
	C218.855240,160.131302 223.599075,162.911270 229.462799,165.542587 
	C225.574173,169.553070 222.736984,172.479156 219.651794,175.659210 
z"/>
<path fill="#030302" opacity="1.000000" stroke="none" 
	d="
M341.118713,204.332092 
	C339.976501,213.648071 340.004120,223.291794 337.501007,232.226501 
	C322.002930,287.544983 285.951080,321.450409 229.721878,333.653564 
	C225.842361,334.495544 221.808044,334.685028 217.831528,334.996857 
	C215.400360,335.187500 212.942062,335.032074 210.237228,335.032074 
	C210.179840,333.960541 210.100601,333.161652 210.099838,332.362732 
	C210.091080,323.220001 210.094269,314.077301 210.094269,304.621490 
	C215.364487,303.937561 220.494308,303.591156 225.487473,302.573914 
	C269.567352,293.593689 301.807465,259.286804 308.130798,214.885971 
	C308.629181,211.386597 309.552765,207.947784 311.078064,204.437851 
	C321.624481,204.373962 331.371582,204.353027 341.118713,204.332092 
z"/>
<path fill="#020202" opacity="1.000000" stroke="none" 
	d="
M260.284180,73.688873 
	C273.596375,79.699272 285.309967,87.462326 296.023987,96.835068 
	C288.189117,104.418678 280.486389,111.874390 272.593628,119.514061 
	C255.465454,104.060730 234.116089,96.217064 210.382080,93.544220 
	C210.382080,82.699883 210.382080,72.138359 210.382080,61.307343 
	C227.737366,62.454506 244.223282,66.413795 260.284180,73.688873 
z"/>
<path fill="#030303" opacity="1.000000" stroke="none" 
	d="
M331.591248,147.458618 
	C337.475525,161.742615 340.746490,176.215851 341.526031,191.593842 
	C330.634003,191.593842 320.072693,191.593842 309.243652,191.593842 
	C307.445251,167.859909 298.485809,147.186462 282.827667,129.094574 
	C290.570587,121.580948 298.172028,114.204590 305.921112,106.684959 
	C316.490204,118.629463 325.372620,131.966736 331.591248,147.458618 
z"/>
<path fill="#030303" opacity="1.000000" stroke="none" 
	d="
M253.957748,140.960693 
	C248.697174,146.535629 243.665695,151.839706 239.785477,155.930161 
	C229.169647,151.409271 219.998428,147.503586 210.282104,143.365768 
	C210.282104,132.795197 210.282104,121.187027 210.282104,109.164093 
	C230.701859,110.333664 248.225784,117.759727 263.868195,131.419327 
	C260.417603,134.723495 257.302216,137.706665 253.957748,140.960693 
z"/>
<path fill="#F4F3EE" opacity="1.000000" stroke="none" 
	d="
M340.847534,203.989349 
	C331.371582,204.353027 321.624481,204.373962 311.421204,204.267578 
	C311.827240,203.765030 312.694153,203.054138 313.550873,203.066238 
	C322.560303,203.193314 331.568115,203.435928 340.847534,203.989349 
z"/>
</svg>