<?xml version="1.0" encoding="UTF-8"?>
<svg id="Layer_1" data-name="Layer 1" xmlns="http://www.w3.org/2000/svg" viewBox="0 0 2447.16 1455.99">
  <defs>
    <style>
      .cls-1 {
        fill: #fff;
      }

      .cls-2 {
        fill: #fefefe;
      }
    </style>
  </defs>
  <g id="s43fg8.tif">
    <g>
      <path class="cls-2" d="M516.47,199.35c0,110.1-89.37,199.35-199.61,199.35s-199.61-89.25-199.61-199.35S206.62,0,316.86,0s199.61,89.25,199.61,199.35ZM308.63,92.32v-43.39c0-1.06,2.46-1.47,3.47-1.57,2.77-.29,14.54.73,17.99,1.09,112.26,11.51,176.14,134.33,114.79,231.33-25.47,40.27-70.8,67.36-118.73,69.95-2.47.13-17.52.66-17.52-1.54v-42.39c-48.3-3.37-89.46-27.06-124.87-58.34-12-10.6-26.14-24.16-36.97-35.9-3.38-3.66-6.21-8.14-9.95-11.5,1.77,136.55,148.59,223.02,269.34,154.78C571.81,261.25,494.09,6.16,302.15,21.51c-91.52,7.32-164.42,83.51-165.3,175.55l21.44-21.97c42.18-40.35,88.76-80.02,150.35-82.77ZM323.61,62.39v29.43c6.27,2.65,14.02,3.07,20.97,4.99,15.34,4.25,29.28,12.17,41.47,22.2l21.44-21.2c-22.86-21.25-53.03-32.27-83.88-35.41ZM452.46,191.07c-.24-20.86-7.45-42.52-17.81-60.52-1.96-3.41-14.66-22.7-17.51-22.2-2.25.39-17.72,18.49-20.6,21.37,15.18,16.49,24.9,38.94,25.95,61.35h29.96ZM323.61,110.27v33.92c5.4.62,11.74,2.44,16.66,4.8,2.67,1.28,8.94,6.5,10.6,6.07l23.69-24.32c-14.63-11.61-32.15-18.98-50.95-20.46ZM308.63,111.27c-70.76,8.15-105.61,92-57.9,147.11,50.74,58.61,152.19,25.2,154.79-52.34h-24.47c-2.26,0-2.26-14.96,0-14.96h24.47c-.19-10.54-3.36-21.09-7.82-30.6-1.78-3.8-7.89-14.82-10.69-17.26-.93-.81-1.37-1.46-2.79-.91l-49.15,49.79c4.75,14.57-6.37,30.19-22.27,26.22-16.93-4.22-19.7-29.09-3.17-35.72,6.79-2.73,12.81.45,15.95-1,1.21-.56,14.17-13.86,13.96-14.85-4.95-5.61-13.43-7.5-20.55-8.47-2.1-.28-10.37.59-10.37-1.62v-45.39ZM452.46,206.04h-29.96c-1.4,51.77-46.74,97.87-98.88,98.75v28.93c68.61-.34,127.52-59.48,128.85-127.68Z"/>
      <g>
        <path class="cls-2" d="M554.84,290.82c-.33-.09-1.77-1.55-1.98-2.01l-.02-108.72c.92-1.66,2.25-1.82,3.95-2.04,3.98-.51,16.11-.52,20.07,0,1.42.19,2.56.21,3.54,1.45l14.39,64.44,13.03-63.8c.65-1.3,1.59-1.76,2.97-2.02,2.87-.55,22.49-.35,24.04.88,1.1.87,1.43,2.2,1.45,3.54l-.56,106.27c-.22.47-1.81,2.01-1.98,2.01h-14.98c-.11,0-1.5-1.39-1.5-1.5v-74.31l-13.47,67.84c-.46,1.72-1.13,5.96-1.99,6.99-1.21,1.44-13.85,2.09-15.34-.67l-15.14-70.17v70.32c0,.11-1.39,1.5-1.5,1.5-3.48,0-12.47.7-14.98,0Z"/>
        <g>
          <path class="cls-2" d="M704.16,179.6c.4-1.3,2.27-1.41,3.44-1.55,8.45-.99,28.25-.32,36.57,1.49,7.62,1.66,13.13,9.15,14.47,16.47,2.05,11.22,1.97,64.54,0,75.91-1.35,7.81-6.45,14.42-13.98,16.96-1.22.41-7.3,1.94-8.05,1.94h-30.96c-.11,0-1.5-1.39-1.5-1.5v-109.73ZM723.14,273.87c6.91-.13,17.33,1.06,17.03-8.43l-.27-65.67c-1.47-6.61-11.8-4.33-16.76-4.71v78.8Z"/>
          <path class="cls-2" d="M668.21,196.06v28.93h19.48c2.27,0,2.27,16.96,0,16.96h-19.48v31.92h25.97c.29,2.77.69,16.96-1.5,16.96h-41.95c-.11,0-1.5-1.39-1.5-1.5v-109.73c0-.11,1.39-1.5,1.5-1.5h41.95c.11,0,1.5,1.39,1.5,1.5v14.96c0,.11-1.39,1.5-1.5,1.5h-24.47Z"/>
        </g>
      </g>
      <g>
        <path class="cls-2" d="M638.25,351.66l12.96-42.4c3.11-.49,16.08-1.42,17.52.49l10.96,41.93,9.96-41.93c1.19-1.59,12.99-1.53,14.09-.02l-15.51,65.44c-3.26.37-15.9,1.44-17.55-.54-4.56-11.72-5.84-26.18-10.19-37.71-.48-1.26-.6-2.93-2.27-3.21l-11.48,40.91c-1.21,1.44-14.77,1.53-16.51.5-2.79-1.65-13.69-55.3-16.31-62.55l.44-3.7c3.71.38,12.72-1.58,14.81,1.47l9.07,41.32Z"/>
        <path class="cls-2" d="M593.79,308.78c20.32,2.86,21.45,33.66,2.47,39.45.46,4.79,13.69,23.61,11.59,26.44-1.08,1.45-12.71,1.39-14.57.46-2.69-1.34-10.54-24.3-12.13-25.29-1.69-1.06-11,.43-13.82-.16v24.44c0,2.25-14.98,2.25-14.98,0v-63.84c0-.27,1.17-.99,1.5-1.5,12.39,1.25,27.98-1.68,39.95,0ZM588.8,320.75c-6.14-1.08-14.99.79-21.47,0v16.96h22.47c5.89,0,8.37-15.31-1-16.96Z"/>
        <path class="cls-2" d="M726.14,322.74v11.97h28.47c2.24,0,2.24,12.97,0,12.97h-28.47v13.97h29.47c2.25,0,2.25,13.97,0,13.97h-42.95c-.11,0-1.5-1.39-1.5-1.5v-63.84c0-.11,1.39-1.5,1.5-1.5h42.95c2.25,0,2.25,13.97,0,13.97h-29.47Z"/>
        <path class="cls-2" d="M825.02,353.67c.21,9.3,11.19,13.54,18.37,8.86,1.8-1.17,2.19-4.05,4.29-4.7,3.52-1.08,11.19-1.39,11.39,3.3.5,11.84-16.14,16.17-25.6,15.5-34.25-2.45-29.47-63.13,10.96-51.84,10.91,3.05,17.94,16.92,14.61,27.43l-34.02,1.44ZM845,344.69c.25-14.12-18.9-13.63-19.98,0h19.98Z"/>
        <path class="cls-2" d="M786.08,357.65l11.51-30.88c1.11-1.98,12.86-2.41,13.43-2.03.37.24.81,3.66.11,4.48-9.06,16.53-13.12,40.71-22.53,56.4-4.46,7.44-11.55,9.5-20.01,7.95-3.54-.65-3.25-9.33-2.06-11.04,1.86-2.67,11.44,2.05,11.61-5.39-.64-6.69-18.53-48.87-16.62-51.47,1.36-1.85,11.79-1.39,13.63.5,4.35,4.47,7.58,24.96,10.94,31.48Z"/>
      </g>
      <g>
        <path class="cls-2" d="M917.91,95.31h17.98v-47.38c0-.11,1.39-1.5,1.5-1.5h15.98c.17,0,1.76,1.54,1.98,2.01,1.29,2.74.57,21.27.6,26.4.17,26.48-1.92,53.14-1.13,79.86.05,1.7,2.25,8.44-.45,8.44h-16.98c-.11,0-1.5-1.39-1.5-1.5v-49.38h-17.98v49.38c0,.11-1.39,1.5-1.5,1.5h-16.98c-.11,0-1.5-1.39-1.5-1.5V47.93c0-.11,1.39-1.5,1.5-1.5h16.98c.11,0,1.5,1.39,1.5,1.5v47.38Z"/>
        <path class="cls-2" d="M770.58,163.14c-2.52-.8-2.75-19.53-4.64-22.8l-18.83-.13c-.77,4.07-3.47,19.22-4.01,22.42-2.1,0-7.34.52-10.52.51-2.47,0-3.67,0-8.64,0l20.4-113.98c1.02-2.79,2.71-2.54,5.2-2.78,4.31-.43,18.86-1.17,20.3,2.78l20.16,111.59c.22.83-1.01,2.39-1.45,2.39h-17.98ZM764.09,122.24l-7.49-46.89-6.49,46.89h13.98Z"/>
        <path class="cls-2" d="M588.3,69.87c-.9-8.08-3.58-9.29-11.55-8.54-3.68.35-4.95.43-5.48,4.5-.84,6.4-.96,17.76,3.51,22.53,11.22,11.97,30.68,20.04,32.49,38.38,3.01,30.51-6.84,40.7-37.45,37.4-9.9-1.07-16.55-9.49-18.03-18.9-.52-3.32-1.82-22,2.05-22h14.98c6.01,0-1.93,21.9,6.44,24.48,15.95,4.92,15.76-17.86,9.06-25.99-10.62-12.87-30.9-19-32.97-39.9-2.89-29.25,7.65-40.35,37.36-36.31,7.78,1.06,18.57,10.27,18.57,18.37v20.95c0,.11-1.39,1.5-1.5,1.5h-15.98c-.11,0-1.5-1.39-1.5-1.5,0-4.67.5-10.51,0-14.96Z"/>
        <path class="cls-2" d="M694.17,63.39v31.92h20.48c2.27,0,2.27,16.96,0,16.96h-20.48v32.92h24.47c.11,0,1.5,1.39,1.5,1.5v14.96c0,.11-1.39,1.5-1.5,1.5h-42.95c-.11,0-1.5-1.39-1.5-1.5V47.93c0-.56,1.68-1.53,2.5-1.5,9.26-.14,18.63.16,27.84-.13,1.94-.06,13.61-2.54,13.61.63v14.96c0,.11-1.39,1.5-1.5,1.5h-22.47Z"/>
        <path class="cls-2" d="M649.23,64.39v97.26c0,.11-1.39,1.5-1.5,1.5h-16.98c-.11,0-1.5-1.39-1.5-1.5V63.39h-15.48c-1.86,0-2.87-14.93.16-16.8s34.73-1.47,40.83-1.2c2.43.11,9.07.18,9.94,2.04,1.01,2.17,1.14,16.95-.99,16.95h-14.48Z"/>
        <path class="cls-2" d="M870.96,64.39v97.26c0,.11-1.39,1.5-1.5,1.5h-15.98c-.11,0-1.5-1.39-1.5-1.5v-97.26h-16.48c-.11,0-1.5-1.39-1.5-1.5v-14.96c0-1.09,2.44-1.43,3.44-1.55,9.69-1.14,37.36-1.14,47.05,0,1.01.12,3.44.45,3.44,1.55v14.96c0,.11-1.39,1.5-1.5,1.5h-15.48Z"/>
        <path class="cls-2" d="M815.03,145.19h24.47c.11,0,1.5,1.39,1.5,1.5v14.96c0,.11-1.39,1.5-1.5,1.5h-41.95c-.11,0-1.5-1.39-1.5-1.5V47.93c0-.11,1.39-1.5,1.5-1.5h15.98c.11,0,1.5,1.39,1.5,1.5v97.26Z"/>
      </g>
    </g>
  </g>
  <g>
    <path d="M841,475.85v403H0v-403h841ZM399.01,676.16c0-109.78-89-198.78-198.78-198.78S1.45,566.37,1.45,676.16s89,198.78,198.78,198.78,198.78-89,198.78-198.78ZM489,561.85v-24.5c0-7.18-11.99-13.83-18.51-14.49-27.84-2.8-37.1,6.74-34.47,34.47,1.26,13.35,10.82,21.38,19.97,30.03,10.66,10.08,21.05,12.7,16.58,31.55-1.56,6.58-9.55,8.88-15.33,6.19-1.61-.75-4.24-5.41-4.24-6.76v-17.5h-16v24.5c0,1.76,5.64,9.09,7.51,10.49,8.47,6.35,32.58,6.25,40.04-1.95s7.05-28.99,3.33-38.43c-4.98-12.63-24.89-22.11-31.89-32.11-3.37-4.82-4.92-22.64-.33-25.59,1.88-1.21,10.42-1.38,12.65-.72,1.75.52,4.7,5.96,4.7,7.31v17.5h16ZM548,523.85h-51v15h17v100h18v-100h16v-15ZM601,523.85h-42c-.27.73,1,1.2,1,1.5v112c0,.3-1.27.77-1,1.5h44v-16h-26v-35h22c-.66-4.74,1.61-11.24-1.5-15h-20.5v-34h24v-15ZM609,638.85h18l3.58-23.06,20.48.5,2.94,22.56h19l-22.46-115.07-20.44.17-21.1,114.9ZM698,523.85h-17v115h43v-14.5l-1.5-1.5h-24.5v-99ZM771,523.85h-52v15h16.5l1.5,1.5v98.5h17v-100h17v-15ZM800,523.85h-17v115h17v-51h21v51h17v-115h-17v49h-21v-49ZM463,655.85h-25v111h14.5l1.5-1.5v-79c0-.87-2.89-2.97,1-2.5l16.16,81.34c1.96,3.3,9.69.97,13.26,1.71l17.58-83.06v83h16v-108.5c0-.25.81-.59.78-1l-1.28-1.5h-24l-15,72.01-15.5-72.01ZM577,655.85h-43v111h43v-15h-26v-35h21v-14h-21v-31h26v-16ZM589,766.85h28.5c.85,0,7.23-1.14,8.55-1.45,9.62-2.25,13.97-7.8,15.5-17.5,2.08-13.24,2.07-60.85,0-74.1-2.84-18.14-17.41-16.93-32.05-18.04l-20.5,1.09v110ZM476.5,786.85c-11.64-1.57-26.5,1.17-38.5,0v62.5c0,.31-1.38,1.41-1,2.49h13s0-25.99,0-25.99h16l11,26h15l-14.02-27.48c19.83-3.89,19.5-34.68-1.48-37.52ZM512,786.85h-14l16.61,65.06,14.9-1.05,12.5-45.01,13.03,45.96,16-.42,15.96-64.53h-12.99s-9.52,47-9.52,47l-12.49-47-17.05.44-13.44,48.57-9.5-49.01ZM640,786.85h-44v65h44v-12h-31v-16h30v-11h-30v-15c.73-.27,1.2,1,1.5,1h29.5v-12ZM743,828.85c-.01-13.75-4.48-25.24-19.61-26.89-22.77-2.49-32.28,16.57-25.45,36.44,5.22,15.18,27.05,18.85,38.78,9.79,3-2.31,8.82-11.2,2.77-12.34-10.55-1.98-8.05,3.21-13.23,5.77-8.6,4.26-18.67-2.11-18.27-11.77l35.01-1ZM659,803.85h-14c1.96,3.68,3.56,7.57,5.02,11.48,2.37,6.32,13.75,36.8,13.02,40.99-.65,3.72-7.21,4.69-10.4,3.62l-1.49,1.56-.16,8.35c8.2.24,16.91,1.01,20.83-7.68l23.18-58.31-12.86.13-11.64,34.87-11.5-35.01Z"/>
    <g>
      <path d="M381.17,676.36c0,99.85-80.95,180.8-180.8,180.8S19.57,776.21,19.57,676.36s80.95-180.8,180.8-180.8,180.8,80.95,180.8,180.8ZM193,825.85c49.82,1.77,95.83-19.02,126.4-58.1,70.03-89.56,17.59-220.54-93.21-239.58-11.34-1.95-21.88-2.21-33.19-3.31v45c-54.79,2.49-97.14,33.12-136.01,68.49-9.38,8.53-22.74,20.77-31.01,29.99-1.72,1.92-3.81,4.48-4.84,6.85.23,2.47,14.06,17.29,16.87,20.17,31.15,31.95,69.94,65.52,113.48,78.52,13.51,4.03,27.54,6.33,41.52,7.98v44Z"/>
      <path d="M193,632.85c8.63,1.46,17.03,1.31,25.06,5.44,3.34,1.72,7.31,3.6,4.99,7.11-.85,1.28-14.01,14.54-15,14.91-2.91,1.1-8.88-4.18-17.98,2.1-17.45,12.04-.48,39.95,18.48,30.48,9.92-4.96,10.41-14.19,8.92-24l51.04-52.02c12.91,13.28,21.38,33.31,21.5,51.98h-26v12h25.5c1.83,2.32.89,9.31.39,12.4-10.7,66.07-95.48,96.05-146.42,52.63-62.61-53.37-28.88-149.44,49.53-160.03v47Z"/>
      <path d="M206,811.85v-31c49.84-1.83,88.4-37.5,97.71-85.79.88-4.54.35-10.63,2.79-14.21h30c.63,0,1.44,1.6,1.53,2.49.27,2.66-1.74,13.22-2.35,16.7-8.81,49.96-46.05,92.76-94.92,107.08-4.27,1.25-16.58,4.74-20.26,4.74h-14.5Z"/>
      <path d="M206,570.85v-33c31.83,2.2,61.99,14.7,86,35.53l-23.37,23.4c-16.71-15.58-39.83-24.63-62.64-25.93Z"/>
      <path d="M338,668.85h-33c-.87-23.29-11.1-45.14-25.92-62.65l22.42-23.34c21.71,23.75,34.13,53.8,36.5,85.98Z"/>
      <path d="M206,621.85v-36c10.45.63,20.07,2.75,29.67,6.83,3.97,1.68,23.43,12.02,23.39,15.69l-25.56,25.47c-6.91-7.56-17.73-10.42-27.5-11.98Z"/>
    </g>
    <path d="M606,751.85v-81c8.58.46,18-3.01,19.05,8.45,1.91,20.97-1.16,45.32-.48,66.61-1.76,7.27-12.56,5.75-18.57,5.93Z"/>
    <g>
      <path d="M450,815.85v-19h22.5c5.99,0,9.2,8.95,6.37,14.37-.62,1.18-4.42,4.63-5.37,4.63h-23.5Z"/>
      <path d="M730,822.85h-22c-.11-16.82,22.89-17.39,22,0Z"/>
    </g>
    <polygon points="649 599.85 633 599.85 640.5 543.84 649 599.85"/>
  </g>
  <g>
    <g id="uELc5x.tif">
      <g>
        <path class="cls-2" d="M980.45,962.91c145.54,13.66,228.48,176.22,150.24,302.15-74.42,119.77-248.39,126.28-330.84,11.37-89.94-125.35-6.84-302.28,146.64-313.53h33.96ZM1142.19,1160.91c0-99.49-80.76-180.14-180.38-180.14s-180.38,80.65-180.38,180.14,80.76,180.14,180.38,180.14,180.38-80.65,180.38-180.14Z"/>
        <path class="cls-2" d="M1599.71,1123.5h-17.98v-50.87h-19.98v50.87h-17.98v-114.71h17.98v46.38c0,.25-.06.68-.03,1.09v1.4h20.01v-48.88c6.53,0,11.82,0,17.98,0v114.72Z"/>
        <path class="cls-2" d="M1223.66,1140.46l15.98,71.83c2.34-6.4,11.31-71.83,14.98-71.83h23.97l1.5,1.5v107.73l-1.5,1.5h-15.48v-82.79l-17.59,82.85-13.27-.16-17.08-80.69v80.8h-16.98v-109.22l1.5-1.5h23.97Z"/>
        <path class="cls-2" d="M1350.01,1251.18v-110.72c12.07,1.06,38.49-3.17,47.34,6.08,2.13,2.23,4.59,7.8,5.14,10.83,2.16,11.83,1.98,62.76.19,75.1-1.13,7.82-5.59,14.23-13.17,16.77-1.22.41-7.3,1.94-8.05,1.94h-31.46ZM1366.99,1236.22c6.12,0,17.07.89,18.77-6.69-1.07-21.09,2.14-44.9.26-65.67-1.01-11.11-10.62-8.02-19.03-8.43v80.8Z"/>
        <path class="cls-2" d="M1433.91,1123.5h-18.98l-3.1-22.83-20.3-.13-3.79,22.97h-17.58l19.96-113.05c.29-1.34,1.18-1.45,2.33-1.67,2.11-.4,19.7-.17,20.55.43l20.91,114.28ZM1409.93,1084.6l-8.49-54.87-7.49,54.87h15.98Z"/>
        <path class="cls-2" d="M1251.12,1046.7h-16.98v-15.46c0-.32-1.47-5.66-1.74-6.24-2.25-4.78-15.99-5.22-17.21,1.28-.5,2.69-.48,15.17.02,17.88,1.44,7.79,28.38,23.47,33.43,34.44,3.01,6.54,3.14,19.25,2.52,26.49-1.76,20.47-19.77,21.22-36.49,19.42-16.97-1.83-19.14-21.79-17.53-35.46.12-1,.45-3.44,1.55-3.44h14.98c4.56,0-3.29,21.48,6.44,24.49,12.59,3.89,15.19-7.95,13.78-17.75-2.11-14.62-27.28-23.94-34.2-39.66-4.56-10.35-4.9-34.1,5.56-41.33,8.5-5.88,32.04-5.39,39.79,2.03,1.93,1.84,6.09,9.51,6.09,11.87v21.45Z"/>
        <polygon class="cls-2" points="1361.99 1008.79 1361.99 1023.76 1338.02 1023.76 1338.02 1057.67 1359.99 1057.67 1359.99 1072.63 1338.02 1072.63 1338.02 1107.54 1363.99 1107.54 1363.99 1123.5 1320.04 1123.5 1320.04 1008.79 1321.41 1008.79 1361.99 1008.79"/>
        <polygon class="cls-2" points="1273.1 1271.13 1282.59 1319.02 1296.03 1271.59 1313.01 1271.18 1325.52 1317.02 1335.07 1271.18 1348 1271.14 1332.98 1335.92 1316.14 1335.87 1303.07 1291.08 1290.98 1335.87 1276.56 1336.03 1259.11 1271.13 1273.1 1271.13"/>
        <path class="cls-2" d="M1338.02,1140.46v15.96h-25.97v30.92h20.97v14.96h-20.97v33.91h26.97c-.54,3.11-1.03,6.3-1.08,9.48-.02,1.36,1.62,5.48-.42,5.48h-42.45v-110.72h42.95Z"/>
        <path class="cls-2" d="M1309.05,1024.75h-15.98v98.75h-17.98v-99.75h-16.98v-14.96c25.67-.06,27.49,0,46.41,0,.81,0,1.29,0,4.53,0v15.97Z"/>
        <polygon class="cls-2" points="1531.79 1008.79 1531.79 1024.75 1514.81 1024.75 1514.81 1123.5 1497.83 1123.5 1497.83 1024.75 1479.85 1024.75 1479.85 1008.79 1531.79 1008.79"/>
        <polygon class="cls-2" points="1458.88 1008.79 1458.88 1107.54 1484.84 1107.54 1484.84 1123.5 1441.9 1123.5 1441.9 1008.79 1458.88 1008.79"/>
        <path class="cls-2" d="M1238.64,1271.13c5.6.79,13.07,5.9,14.25,11.7,2.19,10.74-.52,24.82-13.75,25.22l13.98,27.92h-14.48c-1.42,0-10.7-22.79-11.49-25.93h-14.48c-1.09,0-1.43,2.44-1.55,3.44-.76,6.46.27,14.95.61,21.52-1.49,2.08-10.68.48-13.55.97v-64.84c12.53,1.27,28.33-1.7,40.45,0ZM1211.17,1300.06h23.47c2.99,0,6.56-6.42,6.53-9.5-.04-3.46-4.28-9.45-7.53-9.45h-20.97l-1.5,1.5v17.46Z"/>
        <polygon class="cls-2" points="1400.94 1271.13 1400.94 1283.1 1369.98 1283.1 1369.98 1297.07 1399.95 1297.07 1399.95 1308.04 1369.98 1308.04 1369.98 1324 1400.94 1324 1400.94 1335.97 1357 1335.97 1357 1271.13 1400.94 1271.13"/>
        <path class="cls-2" d="M1503.83,1313.03l-34.96,1c-.13,10.08,10.9,16.02,19.36,10.85,2.08-1.27,2.71-4.18,4.27-4.71,2.64-.91,7.34.29,10.33-.16.89,21.17-34.71,22.26-42.77,6.3-7.62-15.08-3.21-38.34,16.31-40.2s28.17,8.6,27.46,26.92ZM1490.84,1307.04c.63-16.73-21.29-16.16-21.97,0h21.97Z"/>
        <path class="cls-2" d="M1430.92,1322l12.51-33.93,12.44-.97-23.44,59.87c-4.03,8.28-12.68,7.11-20.51,6.96v-9.98c5.69-.06,12.66,1.61,11.96-6.36-.54-6.2-9.28-27.6-11.93-35.05-.85-2.38-7.15-14.89-7.12-15.65,8.28,1.03,7.72.85,14.62,1.17,3.87,3.98,8.08,27.64,11.47,33.94Z"/>
        <path class="cls-2" d="M954.48,1009.79c21.39.58,42.38,3.47,62.44,10.95,48.61,18.14,86.65,66.22,94.08,117.51,13.54,93.45-62.15,176.81-156.52,171.78v-43.89c-48.59-2.96-90.32-26.87-125.86-58.34-11.45-10.14-25.76-23.64-35.97-34.9-1.85-2.04-9.86-11.08-9.92-12.99s1.44-3.21,2.44-4.52c7.5-9.77,25.7-25.62,35.46-34.41,38.09-34.28,80.32-64.39,133.85-66.32v-44.89ZM967.46,1024.25v30.42c23.46,3.2,45.42,11.17,63.44,26.69,2.93-3.32,22.49-20.77,22.47-23.19-19.79-16.24-43.17-28.67-68.7-33.16-3.53-.62-11.92-2.16-14.96-2.07-.94.03-2.02.49-2.25,1.3ZM1066.34,1153.43h31.96c-.11-31.49-14.77-61.12-34.54-84.86-1.25-.2-2.01.39-2.97,1.02-5.03,3.32-13.54,14.13-17.93,19.05-.54.61-1.66.88-2.49.97v1.46c15.34,16.74,25.28,39.61,25.96,62.36ZM967.46,1070.64v34.41c5.55,2.98,11.97,3.57,17.66,6.3,2.67,1.28,8.94,6.5,10.6,6.07l24.67-25.3c-15.1-12.69-33.12-20.15-52.94-21.48ZM954.48,1071.63c-71.81,7.62-108.45,92.52-59.44,148.64,44.08,50.47,129.08,34.69,152.11-27.67,3.2-8.65,3.76-17.22,5.22-26.21h-26.97v-12.97h25.97c-.36-18.94-8.81-37.92-21.47-51.85l-50.96,51.87c4.59,14.7-5.77,29.62-22,24.96-18.76-5.38-15.62-34.75,4.05-35.05,3.32-.05,6.59,1.9,9.46.58,1.23-.57,15.12-14.75,14.93-15.82-7.23-8.68-20.27-9.78-30.89-9.61v-46.88ZM1099.3,1166.4h-32.96c-.48,46.09-36.82,88.34-81.85,97.31-2.7.54-17.03,1.33-17.03,2.94v29.43c57.44.07,109.3-41.23,125.56-95.54,3.34-11.17,4.65-22.63,6.28-34.13Z"/>
      </g>
    </g>
    <g id="cepibF.tif">
      <g>
        <path class="cls-1" d="M2321.41,1417.47l-.35-.17v-54.79s.35-.22.35-.22c33.62,0,67.24,0,100.86,0,33.3,3.55,33.13,51.87-.18,55.2-33.56,0-67.12-.02-100.68,0Z"/>
        <path class="cls-1" d="M2311.49,1362.11l.35.17c0,18.26,0,36.52,0,54.79l-.35.22c-33.58,0-67.16,0-100.74,0-33.1-3.62-33.09-51.62,0-55.2,33.58,0,67.16.02,100.74,0Z"/>
        <path class="cls-1" d="M2174.75,1386.84l2.33-49.09h13.63l11.83,20.56c-13.84,2.78-22.7,12.78-23.9,31.04,1.93,16.07,8.93,27.41,23.51,32.24l-11.47,20.05-13.61.39-2.33-49.45"/>
        <polyline class="cls-1" points="2174.98 1392.57 755.89 1392.57 755.89 1386.83 2174.98 1386.83"/>
        <polygon class="cls-1" points="2324.21 1420.52 2314 1455.91 2289.95 1455.99 2286.01 1420.52 2324.21 1420.52"/>
        <polygon class="cls-1" points="2286.01 1358.88 2289.95 1323.41 2314 1323.49 2324.21 1358.88 2286.01 1358.88"/>
      </g>
    </g>
  </g>
</svg>