<?xml version="1.0" encoding="UTF-8"?>
<svg id="Layer_1" data-name="Layer 1" xmlns="http://www.w3.org/2000/svg" viewBox="0 0 2034.9 369.57">
  <defs>
    <style>
      .cls-1 {
        fill: #fff;
      }
    </style>
  </defs>
  <path class="cls-1" d="M72.11,107.87c-96.45,8.62-96.01,145.96.5,153.84l284.7-.02V107.89l-285.2-.02Z"/>
  <path class="cls-1" d="M652.02,107.86l-284.7.02v153.79l285.2.02c96.32-8.68,95.89-145.76-.5-153.84Z"/>
  <path class="cls-1" d="M655.24,265.68l32.49,63.91h37.99l5.75-139.82c-3.49,40.47-35.85,72.31-76.23,75.91Z"/>
  <path class="cls-1" d="M687.81,40.06l-32.57,63.83c34.76,2.23,65.76,27.95,73.73,61.92l2.74,13.48-5.99-140.31-37.91,1.08Z"/>
  <polygon class="cls-1" points="411.58 .5 345.55 0 316.32 98.9 422.8 98.9 411.58 .5"/>
  <polygon class="cls-1" points="344.88 369.47 410.57 369.57 422.8 270.67 316.32 270.67 344.88 369.47"/>
  <rect class="cls-1" x="732.22" y="176.8" width="1302.68" height="15.98"/>
</svg>